STARTFONT 2.3
FONT -FontForge-Henny Penny-Book-R-Normal--28-280-72-72-P-160-ISO10646-1
SIZE 28 72 72  4
FONTBOUNDINGBOX 39 50 -4 -18
COMMENT "Generated by fontforge, http://fontforge.sourceforge.net"
COMMENT "Copyright (c) 2012, Brownfox (gayaneh.b@gmail.com), with Reserved Font Name "Henny Penny""
STARTPROPERTIES 40
FOUNDRY "FontForge"
FAMILY_NAME "Henny Penny"
WEIGHT_NAME "Book"
SLANT "R"
SETWIDTH_NAME "Normal"
ADD_STYLE_NAME ""
PIXEL_SIZE 28
POINT_SIZE 280
RESOLUTION_X 72
RESOLUTION_Y 72
SPACING "P"
AVERAGE_WIDTH 160
CHARSET_REGISTRY "ISO10646"
CHARSET_ENCODING "1"
FONTNAME_REGISTRY ""
CHARSET_COLLECTIONS "ISO10646-1"
BITS_PER_PIXEL 4
FONT_NAME "HennyPenny-Regular"
FACE_NAME "Henny Penny"
COPYRIGHT "Copyright (c) 2012, Brownfox (gayaneh.b@gmail.com), with Reserved Font Name "Henny Penny""
FONT_VERSION "1.001"
FONT_ASCENT 22
FONT_DESCENT 6
UNDERLINE_POSITION -3
UNDERLINE_THICKNESS 2
X_HEIGHT 17
CAP_HEIGHT 21
RAW_ASCENT 799
RAW_DESCENT 200
NORM_SPACE 8
RELATIVE_WEIGHT 40
RELATIVE_SETWIDTH 50
SUPERSCRIPT_X 0
SUPERSCRIPT_Y 9
SUPERSCRIPT_SIZE 16
SUBSCRIPT_X 0
SUBSCRIPT_Y 2
SUBSCRIPT_SIZE 16
AVG_LOWERCASE_WIDTH 142
AVG_UPPERCASE_WIDTH 200
ENDPROPERTIES
CHARS 233
STARTCHAR space
ENCODING 32
SWIDTH 270 0
DWIDTH 8 0
BBX 1 1 0 0
BITMAP
00
ENDCHAR
STARTCHAR exclam
ENCODING 33
SWIDTH 249 0
DWIDTH 7 0
BBX 5 28 1 -1
BITMAP
1CE800
7FFF30
8FFF60
7FFF70
5FFF70
3FFF60
0FFF60
0DFF50
0BFF40
09FF20
07FF10
05FF00
03FD00
02FC00
01FA00
00F800
00F600
00E400
00E200
00D000
007000
000000
000000
000000
1BE600
6FFF00
5FFF00
0BE700
ENDCHAR
STARTCHAR quotedbl
ENCODING 34
SWIDTH 292 0
DWIDTH 8 0
BBX 6 10 1 13
BITMAP
6E21D8
9F53FB
8F53FB
6F53FA
5F52F9
2F41F7
0F40F6
0D30E4
0A20C2
060080
ENDCHAR
STARTCHAR numbersign
ENCODING 35
SWIDTH 1030 0
DWIDTH 29 0
BBX 27 32 1 -9
BITMAP
0000000000000023000000000000
00000000000000A4000000000000
00000000000001D0000000000000
0000000000000680003000000000
0000000000000C2001C000000000
0000000000003B00087000000000
00000000000095001D1000000000
000000000001D000790000000000
2543321100199001E30000000000
37889AABCEFFE99DF54332221000
0000000001EB226F8445578ABC30
0000000001F2009B000000000000
0000000006B001E4000000000000
000000000C5006B0000000000000
000000004E000D40000000000000
00000000B8005D001369BC100000
00000017F98AFECBA86420000000
179ACEFFFB9DE400000000000000
3A97537F600D7000000000000000
000000BE104F1000000000000000
000003F800AA0000000000000000
00000AF202F30000000000000000
00002FA008C00000000000000000
00008F301E600000000000000000
0000EB006E100000000000000000
0004F400D8000000000000000000
00038004F2000000000000000000
0000000BB0000000000000000000
0000002F40000000000000000000
0000008D00000000000000000000
000000D700000000000000000000
0000006000000000000000000000
ENDCHAR
STARTCHAR dollar
ENCODING 36
SWIDTH 799 0
DWIDTH 22 0
BBX 18 32 2 -6
BITMAP
000000000000100000
000000000002900000
000000000005700033
0000000000085002C0
00000005BEFFC99E80
000000BFE51C8FFF30
000008FF600C05FE00
00001EFF303A00CB00
00003FFF5067008900
00003FFFB094006700
00001FFFF6C1004400
00000AFFFFC0000000
000003FFFFE2000000
0000007FFFFD100000
0000000AFFFFB00000
00000000AFFFF90000
000000001FFFFF5000
000000004ACFFFD000
00070000762EFFF500
001A0000B205FFFA00
003A0000D000CFFC00
006B0002B0006FFD00
00AE000570004FFB00
00EF400940003FF800
05FFB00C10007FF200
0C9BF71C0001EF8000
37006EC9015DF80000
200002CEFEC9300000
000000C20000000000
000001C00000000000
000003800000000000
000002200000000000
ENDCHAR
STARTCHAR percent
ENCODING 37
SWIDTH 789 0
DWIDTH 22 0
BBX 22 26 0 0
BITMAP
0003AEFD81000000008300
005FD219FC10000005C000
01EF5000DF8000002E3000
05FF30008FD00000B80000
07FF30005FF00008D00000
07FF40004FF0004F300000
04FF80005FC001D7000000
01EFD0008F700AB0000000
004FF913EB007E20000000
0003BEEC7003F400000000
00000000001D9000000000
0000000000AC0000000000
0000000006E20000000000
000000002E600000000000
00000000CA0004BEFC7100
00000009D1008FB218FC10
0000004F3005FD1000CFA0
000001E6000CF800007FF1
00000AA0002FF500005FF5
00006D10003FF400005FF5
0002E300003FF400006FF4
000C7000001FF600009FE0
008B0000000BFC0000DF70
04E200000002EF911AFA00
0D500000000019DFEB5000
5800000000000000000000
ENDCHAR
STARTCHAR ampersand
ENCODING 38
SWIDTH 773 0
DWIDTH 22 0
BBX 22 27 0 -2
BITMAP
0000005BEEB30000000000
000009D412CE1000000000
00005F20006F6000000000
0000CB00006F6000000000
0001F90000BF4000000000
0002F90005FD0000000000
0002FB002EF50000000000
0001FD02DF900000000000
0000EF5DFC000000000000
0000BFFFD1000000096000
00008FFE300000009F9000
0002DFF80000002BFFA000
000CFFFD00004AFFFF9000
008FFFFF603A8521BF8000
02FFF6DFE10000005F6000
08FFE16FF90000004F3000
0DFFA00CFF4000005E0000
0FFF8003FFE10000990000
1FFF80008FFB0000D30000
0EFFA0000CFFA006B00000
0BFFD00002EFF92D200000
06FFF500005FFFE7000071
00BFFD200008FFFC4003A0
001AFFE61138EFFFFC9E30
00004ADEFEB519FFFFFB00
000000000000006EFFE200
0000000000000002AE5000
ENDCHAR
STARTCHAR quotesingle
ENCODING 39
SWIDTH 174 0
DWIDTH 5 0
BBX 3 9 1 13
BITMAP
5E30
8F70
7F70
5F60
3F60
1F50
0C40
0930
0510
ENDCHAR
STARTCHAR parenleft
ENCODING 40
SWIDTH 431 0
DWIDTH 12 0
BBX 12 40 0 -12
BITMAP
000000800000
000008700000
00004E100000
0000D8000000
0006F2000000
000DC0000000
005F80000000
00BF40000000
02FF10000000
06FD00000000
0AFB00000000
0EF900000000
2FF700000000
5FF600000000
7FF500000000
8FF400000000
9FF400000000
AFF400000000
AFF400000000
AFF500000000
9FF700000000
7FF900000000
5FFC00000000
2FFF00000000
0DFF30000000
0AFF70000000
05FFC0000000
00EFF2000000
008FF7000000
002FFD000000
0009FF500000
0001EFD00000
00006FF60000
00000BFD1000
000001EF8000
0000003FF400
00000005FD10
000000005FB0
0000000003D9
000000000016
ENDCHAR
STARTCHAR parenright
ENCODING 41
SWIDTH 443 0
DWIDTH 12 0
BBX 13 28 0 -7
BITMAP
02D93000000000
003DFA10000000
0001BFE4000000
00001CFF500000
000001DFF30000
0000004FFD1000
0000000BFF8000
00000004FFE100
00000000DFF600
000000009FFA00
000000005FFE00
000000003FFF10
000000001FFF20
000000000FFF20
000000001FFF10
000000002FFE00
000000004FFC00
000000007FF700
00000000BFF200
00000002FFB000
00000008FF2000
0000002FF80000
000001CFB00000
00001BFC100000
0001CFA1000000
006EE600000000
4DE81000000000
23000000000000
ENDCHAR
STARTCHAR asterisk
ENCODING 42
SWIDTH 490 0
DWIDTH 14 0
BBX 12 13 1 13
BITMAP
000019300000
00006FB00000
00004FD00140
00000EE01CF3
000009F09FB0
6CA502F4FA10
8FFFE8DC6000
025557FB0000
00008F6DC200
001BF705FE30
006F8000CFE0
001300003EE0
000000000010
ENDCHAR
STARTCHAR plus
ENCODING 43
SWIDTH 440 0
DWIDTH 12 0
BBX 10 15 1 1
BITMAP
0000073000
0000094000
0000093000
0000093000
0000093000
00000A3000
00112D6366
7FFEEFD974
00000B6000
0000087000
0000069000
000004B000
000002D000
000001E000
0000005000
ENDCHAR
STARTCHAR comma
ENCODING 44
SWIDTH 251 0
DWIDTH 7 0
BBX 5 9 1 -4
BITMAP
2CEA10
8FFF70
7FFF90
1DFF80
02DF50
008E00
00B600
04B000
0A1000
ENDCHAR
STARTCHAR hyphen
ENCODING 45
SWIDTH 436 0
DWIDTH 12 0
BBX 10 2 1 5
BITMAP
2431001232
4ADEFFFED7
ENDCHAR
STARTCHAR period
ENCODING 46
SWIDTH 238 0
DWIDTH 7 0
BBX 5 4 1 -1
BITMAP
1BE900
8FFF30
8FFF30
2CE900
ENDCHAR
STARTCHAR slash
ENCODING 47
SWIDTH 690 0
DWIDTH 19 0
BBX 19 27 0 -1
BITMAP
000000000000000000B0
00000000000000000980
00000000000000005D10
0000000000000002E400
000000000000000B9000
000000000000007D1000
00000000000003F40000
0000000000001D800000
000000000000AC000000
000000000006E2000000
00000000003E50000000
0000000000CA00000000
0000000009D100000000
000000005F3000000000
00000002E70000000000
0000000BB00000000000
0000007E100000000000
000003F4000000000000
00000C80000000000000
00008C00000000000000
0004E200000000000000
001D5000000000000000
00A90000000000000000
06D10000000000000000
1E300000000000000000
87000000000000000000
20000000000000000000
ENDCHAR
STARTCHAR zero
ENCODING 48
SWIDTH 723 0
DWIDTH 20 0
BBX 20 20 0 2
BITMAP
0000016ADFFDB6100000
00006ED620149FE70000
0009FB10000003EF9000
009FD1000000003FFA00
04FF600000000009FF60
0CFE100000000003FFD0
3FFB000000000000DFF5
7FF8000000000000AFF9
9FF70000000000008FFC
AFF70000000000007FFE
AFF80000000000006FFE
8FFA0000000000006FFD
5FFD0000000000007FFB
1FFF2000000000009FF7
0AFF700000000000CFF2
02FFE10000000002FF90
006FFA0000000009FD10
0007FFA10000006FD300
00004CFD72113AFA1000
00000049CEFEC8300000
ENDCHAR
STARTCHAR one
ENCODING 49
SWIDTH 505 0
DWIDTH 14 0
BBX 14 26 0 -2
BITMAP
00000063000000
000000C6000000
000004F9000000
00000BFB000000
00007FFE000000
0005FFFF100000
006FFFFF300000
19B41BFF600000
B60005FF800000
000002FFA00000
000000EFD00000
000000CFF10000
000000AFF30000
0000008FF60000
0000006FF80000
0000005FFB0000
0000004FFE0000
0000003FFF2000
0000002FFF5000
0000001FFF9000
0000001FFFE100
0000003FFFFB10
000000BFFFFFE8
00003CFC742001
001AE920000000
00771000000000
ENDCHAR
STARTCHAR two
ENCODING 50
SWIDTH 534 0
DWIDTH 15 0
BBX 15 25 0 -2
BITMAP
00029DEEC8100000
006FFFFFFFE30000
04F8203AFFFE1000
0D500000AFFF7000
5B0000002FFFB000
950000000EFFC000
B10000000DFFB000
A00000000DFF7000
700000001FFF1000
000000005FF90000
00000000AFE10000
00000003FF400000
0000000CF6000000
0000008F70000000
000006F600000000
00006E4000000000
0008C20000000000
01B9000000000000
2EFE610000000050
03BFFE8200000380
0004CFFFB6215C10
000005EFFFFFF500
0000001AFFFFC000
000000006EFF4000
0000000002BA0000
ENDCHAR
STARTCHAR three
ENCODING 51
SWIDTH 511 0
DWIDTH 14 0
BBX 15 23 0 -2
BITMAP
07A7410000000000
0BFFFFFDCCB60000
0AFFFFFFFFF60000
09FA31012AB00000
09B000002D100000
0A300000B4000000
0700000870000000
0000005900000000
000003E300000000
000003CFC6100000
00000006EFD40000
000000003DFF5000
0000000003FFF300
60000000008FFB00
A0000000002FFF10
D1000000001FFF30
B6000000001FFF40
8E100000005FFF30
2FC1000001DFFE00
0AFE72015DFFF800
01DFFFFFFFFFD100
002CFFFFFFFD2000
00006BEFEC600000
ENDCHAR
STARTCHAR four
ENCODING 52
SWIDTH 712 0
DWIDTH 20 0
BBX 20 28 0 -4
BITMAP
00000000000120000000
00000000000C40000000
00000000009E00000000
0000000005FA00000000
000000003EF900000000
00000002DFFA00000000
0000001B3EFB00000000
000001A20BFE00000000
00001A3008FF20000000
0001B40005FF50000000
001B600003FF80000000
01B9000000FFC0000000
1CE1000000DFF1000000
AFF9100000AFF4000000
29EFE930008FF8000000
0015BFFC616FFB000000
0000028EFEBFFF100180
000000017EFFFFD97C30
00000000006EFFFFFB00
00000000000AFFEFF400
000000000007FFB26000
000000000004FFE00000
000000000002FFF30000
000000000000FFF70000
000000000004FFFE1000
0000000005ACDEFF9000
0000000000000026BB30
00000000000000000166
ENDCHAR
STARTCHAR five
ENCODING 53
SWIDTH 757 0
DWIDTH 21 0
BBX 22 27 0 -3
BITMAP
0000000000000000000021
00000000001CA3000000D1
00000000008FFF920008C0
0000000001EDFFFF958F60
0000000008608FFFFFFE10
000000002B0004DFFFF800
000000009300001AFFE100
00000002A00000005E7000
0000000A20000000000000
0000003C42000000000000
000000AFFFFC7100000000
000000159EFFFE50000000
00000000017EFFF6000000
000000000002EFFF300000
0730000000004FFFA00000
2B00000000000CFFE00000
76000000000009FFF20000
A3000000000007FFF20000
C2000000000008FFF00000
D200000000000AFFD00000
C400000000000DFF900000
9900000000004FFF400000
5F2000000000CFFB000000
0CD30000000AFFE2000000
02EF941026DFFE40000000
003DFFFFFFFFC200000000
00005ADFED940000000000
ENDCHAR
STARTCHAR six
ENCODING 54
SWIDTH 598 0
DWIDTH 17 0
BBX 17 22 0 0
BITMAP
0000016BDFEC710000
00005EFB41139E5000
0006FFA0000003E500
004FFD100000003E10
01EFF6000000000750
07FFE1000000000000
0DFFB0000000000000
2FFF705BDFDA500000
5FFF6BA3014CFC2000
7FFFF8000000AFD100
8FFFD00000001EF900
9FFF7000000008FE10
8FFF4000000005FF40
7FFF2000000003FF60
4FFF2000000002FF70
1FFF3000000002FF50
0AFF5000000004FF20
03FFA000000007FC00
008FF20000000DF500
000AFC1000008F9000
00007FD62029F80000
0000027CEFD9300000
ENDCHAR
STARTCHAR seven
ENCODING 55
SWIDTH 507 0
DWIDTH 14 0
BBX 15 24 0 -2
BITMAP
0000000000000100
653210001257BD10
EFFFFFFFFFFFF500
AFFFFFFFFFFFB000
8F70136AEFFF3000
6D00000005DA0000
5900000000C30000
4600000004A00000
320000000C300000
000000005C000000
00000000D6000000
00000006F1000000
0000000DA0000000
0000006F60000000
000000DF10000000
000005FC00000000
00000CF900000000
00003FF600000000
00009FF400000000
0001EFF200000000
0006FFF100000000
000BFFF100000000
001FFDC000000000
0016100000000000
ENDCHAR
STARTCHAR eight
ENCODING 56
SWIDTH 476 0
DWIDTH 13 0
BBX 14 23 0 -1
BITMAP
00028DFEB50000
004EFD412A8000
01EFF40000C200
07FFF100008600
0BFFF000007600
0CFFF30000A200
0AFFFC0003B000
05FFFF901B2000
00CFFFFDB20000
002DFFFFE40000
0002EFFFFF6000
001AFEFFFFF500
01CD4017EFFE10
0AE200002DFF80
4F80000003FFE0
9F20000000AFF1
BE000000005FF2
CE000000002FF1
AF100000003FD0
6F600000006F70
0DE2000001DC10
02DE72015DC200
0006BEFEB60000
ENDCHAR
STARTCHAR nine
ENCODING 57
SWIDTH 601 0
DWIDTH 17 0
BBX 17 21 0 0
BITMAP
00016BEFEC83000000
004EE7202AFFA10000
04FF5000007FFD2000
0DFB0000000BFFC000
5FF700000004FFF600
9FF400000000EFFD00
AFF400000000BFFF20
AFF4000000009FFF60
8FF6000000008FFF70
5FFA000000009FFF80
0DFF30000000DFFF70
04FFD1000005FFFF60
004EFE62016EFFFF40
00017BEFEC83EFFF00
000000000000FFFB00
000000000003FFF400
000000000009FFB000
00000000002EFE2000
0B50000001CFE30000
02DB51026DFB200000
0006BEFED940000000
ENDCHAR
STARTCHAR colon
ENCODING 58
SWIDTH 246 0
DWIDTH 7 0
BBX 5 14 1 -1
BITMAP
1CEA00
8FFF40
8FFF30
2CE900
000000
000000
000000
000000
000000
000000
08EB10
2FFF60
2FFF60
09EB10
ENDCHAR
STARTCHAR semicolon
ENCODING 59
SWIDTH 266 0
DWIDTH 7 0
BBX 5 18 1 -5
BITMAP
06DE60
0FFFE0
0FFFD0
06ED50
000000
000000
000000
000000
000000
000000
0AEC20
5FFFA0
5FFFB0
09FF80
00CE10
00E600
089000
570000
ENDCHAR
STARTCHAR less
ENCODING 60
SWIDTH 522 0
DWIDTH 15 0
BBX 13 13 1 2
BITMAP
0000000001A800
000000004D8000
00000018E40000
000004DA100000
0002AD50000000
007E8100000000
3DF30000000000
2BFB2000000000
004CF910000000
00005DE8100000
0000006EE70000
000000017ED400
00000000017B20
ENDCHAR
STARTCHAR equal
ENCODING 61
SWIDTH 655 0
DWIDTH 18 0
BBX 16 5 1 5
BITMAP
000134679ABCDEFC
5CEFDCA976532100
1210000000000000
0000000000000000
6FFFEEDDDCCBB900
ENDCHAR
STARTCHAR greater
ENCODING 62
SWIDTH 533 0
DWIDTH 15 0
BBX 13 15 1 1
BITMAP
42000000000000
1B910000000000
007E6000000000
0002CC30000000
000006E9100000
0000002AE60000
000000005DC300
0000000001DF10
0000000006F700
000000009E4000
0000003CB20000
000007E6000000
0001BB20000000
003D6000000000
00310000000000
ENDCHAR
STARTCHAR question
ENCODING 63
SWIDTH 564 0
DWIDTH 16 0
BBX 15 26 0 -3
BITMAP
000029DEFDA50000
0008D6103AFFC100
009F3000009FFC00
04FB0000001FFF60
0CFA0000000CFFB0
2FFD0000000AFFD0
5FFF7000000BFFE0
6FFFF300000EFFC0
5FFFFB00006FFF70
3FFFFF0001DFFE10
0CFFFD000AFFF400
02CFD4008FFE4000
00000009FFB20000
000001BFE5000000
00000BF810000000
0000AD3000000000
0005D10000000000
000B500000000000
000D200000000000
000B717000000000
0003DE6000000000
0000000000000000
0000000000000000
0000AEA000000000
0000FFF200000000
00007EB000000000
ENDCHAR
STARTCHAR at
ENCODING 64
SWIDTH 898 0
DWIDTH 25 0
BBX 23 28 1 -8
BITMAP
0000000027BDEEDB72000000
0000002AE84201259EA10000
000006E700000000019D2000
00007D20000000000006D100
0006D1000000000000009900
002E20000000000010001E10
00A60000000000AFF3000960
03D000028DFD92CFF30005A0
0970005EE5129EEFF20001D0
0D2003FF30000BFFF00000E0
2C000CFA000004FFE00000E0
59003FF6000000FFD00000E0
77008FF5000000DFC00000E0
8600AFF5000000CFC00003C0
9600BFF6000000EFC00006A0
8600AFF8000001FFD0000B60
77008FFC000005CFF1004F10
69004FFF50000B3FFA14E900
4B000BFFE612AA08FFFFD100
1E0001DFFFFFC1007EEA2000
0B400018DFE8000000000000
06A000000002CE8000000000
01E300000008FFF400000000
006C00000005FFF700000000
000B900000004FF600000000
0001CA1000000DE100000000
00001AE73113AE4000000000
00000039DFEC820000000000
ENDCHAR
STARTCHAR A
ENCODING 65
SWIDTH 784 0
DWIDTH 22 0
BBX 23 25 0 -3
BITMAP
00000000007D100000000000
000000248EFF600000000000
00002FECEFFFB00000000000
000000006FFFF10000000000
000000008CCFF60000000000
00000000C56FFB0000000000
00000001E12FFF2000000000
00000006B00CFF7000000000
0000000B6007FFC000000000
0000001E1003FFF200000000
0000006B0000EFF700000000
000000BC5100AFFC00000000
000002F7AEB7CFFF30000000
000007C0015BFFFF80000000
00000D7000004EFFD0000000
00003F20000008FFF3000000
0000AB00000002FFF9000000
0001F600000000CFFE000000
002BF2000000007FFF500000
DFFFF4000000003FFFA00000
0248DF900000000DFFF20000
0000047000000009FFF90000
0000000000000007FFFF9200
000000000000016EFFFFFF40
0000000000004EA742000000
ENDCHAR
STARTCHAR B
ENCODING 66
SWIDTH 685 0
DWIDTH 19 0
BBX 19 29 0 -5
BITMAP
000000259CEFDA400000
5ACCCED3114BFFF60000
003DFFC00000BFFF1000
0004FFD000004FFF5000
0000DFE000000FFF7000
0000AFF000000EFF5000
00008FF100001FFF1000
00006FF200003FF80000
00005FF30000BFA00000
00005FF40009F7000000
00004FF637DB20000000
00004FFEB9ADFC600000
00004FF700004EFD3000
00004FF8000002EFE300
00004FF90000007FFD00
00004FFA0000001FFF50
00004FFB0000000CFF90
00004FFC0000000AFFB0
00004FFD0000000AFFC0
00004FFE0000000AFFB0
00005FFF0000000CFF80
00005FFF2000001FFF20
00007FFF4000006FFA00
00009FFF900002EFD100
0001EFFFF7115DFB1000
001BFFFEFFFEDA400000
04DB6200000000000000
8C400000000000000000
40000000000000000000
ENDCHAR
STARTCHAR C
ENCODING 67
SWIDTH 742 0
DWIDTH 21 0
BBX 21 27 0 -3
BITMAP
0000000000000000026000
0000000000000000056000
0000000000000000086000
00000000000000000C6000
00000038BDEFECA9CF7000
00002BFF941014AFFF9000
0005EFE300000003DFB000
005FFF30000000001DF100
01EFF9000000000002E500
09FFF20000000000004700
1EFFC00000000000000000
5FFF900000000000000000
8FFF600000000000000000
BFFF500000000000000000
CFFF500000000000000000
DFFF500000000000000000
CFFF600000000000000260
BFFF800000000000000470
9FFFB00000000000000560
5FFFE00000000000000840
1EFFF50000000000000B10
08FFFC0000000000002B00
01DFFF500000000000A400
003EFFE300000000059000
0003DFFE400000005C1000
000019FFFB52014B910000
00000016ADEFEC83000000
ENDCHAR
STARTCHAR D
ENCODING 68
SWIDTH 726 0
DWIDTH 20 0
BBX 20 24 0 -5
BITMAP
165434679CDEFDA50000
05CFFFF721149FFFC200
001CFFB0000004EFFE20
0006FF900000005FFFA0
0003FF900000000BFFF3
0001FF9000000006FFF7
0000EF9000000002FFFB
0000EFA000000000FFFD
0000DFB000000000EFFD
0000CFC000000000FFFD
0000CFD000000001FFFA
0000CFE000000004FFF7
0000CFF000000007FFF2
0000CFF30000000DFF90
0000DFF60000006FFC10
0000DFFC000003EFB100
0000FFFFA2027EC50000
0003FFFFFFEA62000000
0008FFFD830000000000
002EFB40000000000000
00AD5000000000000000
08A10000000000000000
98000000000000000000
30000000000000000000
ENDCHAR
STARTCHAR E
ENCODING 69
SWIDTH 557 0
DWIDTH 16 0
BBX 16 26 0 -3
BITMAP
4543334568ABDE10
1AFFFFB532106F00
00DFFF5000000D00
007FFF5000000B00
004FFF5000000800
002FFF6000000000
000EFF7000000000
000CFF7000000000
000AFF8000000000
0008FF8000700000
0007FF9005800000
0005FFFEEF600000
0004FFB13C500000
0002FFC006600000
0001FFC005600000
0000EFD001200000
0000DFE000000000
0000CFF000000000
0000AFF100000000
00009FF200000001
00008FF400000007
00007FF500000038
00007FF6000000B7
0001AFF900002AF5
5FEFFFFFDCCEFFF2
000012234679BB80
ENDCHAR
STARTCHAR F
ENCODING 70
SWIDTH 533 0
DWIDTH 15 0
BBX 16 25 0 -1
BITMAP
0000000000027BE5
0000000159DFFFF6
25678BDD52103DF4
5BFFFFF6000008F1
003EFFF5000007D0
0009FFF500000890
0006FFF500000950
0003FFF600000900
0001FFF600300100
0000EFF600B00000
0000CFF701C00000
0000AFF72AA00000
00008FFFFFA00000
00006FF819A00000
00005FF901A00000
00003FF900B00000
00002FF900800000
00001FFA00000000
00000EFB00000000
00000EFB00000000
00000DFC00000000
00000DFD00000000
00001FFE00000000
0024CFFF70000000
2EFECBBCEE300000
ENDCHAR
STARTCHAR G
ENCODING 71
SWIDTH 750 0
DWIDTH 21 0
BBX 22 22 0 -1
BITMAP
0000000000000000000010
00000000000000000001C1
0000000000000000000B60
00000038BEFEC83001AC00
00003BFE931126CECEF300
0006FFD20000000BFFA000
006FFE2000000002FF3000
03FFF50000000000DC0000
0BFFD00000000000D60000
3FFF900000000000D10000
7FFF600000000000100000
AFFF400000000000003610
CFFF300000001357AEF600
DFFF300000BEDCFFFF7000
CFFF40000000003FFF4000
AFFF70000000000CFF4000
5FFFA0000000000BFF5000
1EFFF1000000000CFF6000
05FFF9000000002FFF8000
008FFF60000000AD9DA000
0006EFFA41025B60003000
000017BEFFDA5000000000
ENDCHAR
STARTCHAR H
ENCODING 72
SWIDTH 743 0
DWIDTH 21 0
BBX 21 30 0 -4
BITMAP
0300000000000000000000
09D8410000000000000000
003EFFFFFED50000000000
0007FFF810100000002550
0004FFF1000002359DE630
0003FFE0000AFEFFFF7000
0003FFE00000008FFF5000
0003FFE00000002FFF4000
0002FFE00000000FFF3000
0002FFE00000000DFF2000
0002FFE00000000CFF2000
0002FFE00000000BFF2000
0002FFE00000000BFF1000
0002FFE00000000DFF1000
0002FFF1000235BFFF1000
0002FFFEDEEDBACFFF0000
0002FFF94100000EFF0000
0003FFF10000000CFF0000
0003FFF00000000BFF0000
0003FFF100000009FE0000
0003FFF100000008FE0000
0004FFF100000007FE0000
0004FFF100000006FE0000
0005FFF100000005FE0000
0005FFF100000006FF0000
0006FFF10000015DFF7000
0006FFF20002FFFFFFFC40
001CFFF500004421012320
5AFFFFFE30000000000000
8742012550000000000000
ENDCHAR
STARTCHAR I
ENCODING 73
SWIDTH 438 0
DWIDTH 12 0
BBX 16 29 -2 -5
BITMAP
04A9987778ABDEFA
0035AFFFFFF93100
00000AFFFF900000
000004FFFF200000
000002FFFD000000
000001FFFA000000
000001FFF7000000
000001FFF5000000
000000FFF3000000
000000FFF2000000
000000FFF0000000
000000FFE0000000
000000FFC0000000
000000FFB0000000
000000FF90000000
000000FF80000000
000000FF70000000
000000FF60000000
000000FF50000000
000000FF40000000
000001FF40000000
000001FF30000000
000001FF30000000
000002FF30000000
000003FF40000000
000008FFB2000000
00007FFFFFFA0000
028DB74210000000
3B61000000000000
ENDCHAR
STARTCHAR J
ENCODING 74
SWIDTH 628 0
DWIDTH 18 0
BBX 19 34 0 -7
BITMAP
00000000000000000130
0000000000000015AE80
0000000012469CFE6100
0000008FFFFFFFE20000
000000003BFFFF900000
0000000000EFFF600000
00000000009FFF400000
00000000006FFF300000
00000000004FFF300000
00000000002FFF300000
00000000000FFF300000
00000000000EFF300000
00000000000DFF300000
00000000000DFF200000
00000000000CFF100000
00000000000CFF000000
00000000000CFE000000
00000000000CFD000000
00000000000DFC000000
00000000000DFA000000
00000000000EF9000000
00000000001FF6000000
00000000003FF4000000
00000000004FF1000000
00000000007FC0000000
0000000000BF80000000
04BED70000EF30000000
3FFFFF5004FC00000000
AFFFFF7009F500000000
CFFFFE202FD000000000
BD124100AF4000000000
8C000007F70000000000
1D8113AF700000000000
019EFD92000000000000
ENDCHAR
STARTCHAR K
ENCODING 75
SWIDTH 866 0
DWIDTH 24 0
BBX 25 26 0 -2
BITMAP
00000000410000000000000000
0112358DA10050000000000000
9FFFFFF50000AE842000000000
017FFFD000000CFFFFFE200000
000EFFA0000009FA3000000000
000CFFA000001D600000000000
000BFFA00000A6000000000000
0009FFA0000870000000000000
0008FFB0006A00000000000000
0007FFB004F300000000000000
0006FFB03EF700000000000000
0005FFC2EFFD00000000000000
0004FFDA6FFF50000000000000
0003FFE10EFFC0000000000000
0002FFC007FFF500000000D400
0001FFC001DFFD100000005E10
0000FFD0005FFFA00000000B80
0000FFD0000AFFF600000007C0
0000EFD00001DFFF50000006C0
0000DFE000002EFFF600000AA0
0000CFE0000002DFFFB5117F50
0000CFF00000001AFFFFFFFA00
0000DFF20000000039DEEC6000
0004FFF8000000000000000000
007FEFFF600000000000000000
00000027BB1000000000000000
ENDCHAR
STARTCHAR L
ENCODING 76
SWIDTH 660 0
DWIDTH 18 0
BBX 18 21 0 0
BITMAP
4CA742000000000000
025BFFFEDDEF800000
0000AFFFFB31000000
00005FFFF300000000
00003FFFF000000000
00002FFFD000000000
00001FFFC000000000
00001FFFA000000000
00000FFF9000000000
00000FFF7000000000
00000FFF6000000000
00000FFF5000002700
00000EFF4000000C00
00000EFF3000000B20
00000FFF2000000970
00000FFF10000007B0
00000FFF10000008F1
00002FFF1000000CF7
00007FFF920013AFFC
026AFFFFFFFFFFFFFD
08A975432111000000
ENDCHAR
STARTCHAR M
ENCODING 77
SWIDTH 1089 0
DWIDTH 31 0
BBX 32 23 0 -2
BITMAP
00000000000000000000000000022000
000000000000000000000007FFFFA000
00000000000000000000001EFC730000
00000100000000000000007FD0000000
00003EDA98700000000000DFB0000000
0000017FFFFA0000000005FFB0000000
00000009EEFF800000000CFFD0000000
00000004D6FFF50000004CFFF0000000
00000001E0CFFE200000B2EFF2000000
00000000F04FFFB0000480BFF5000000
00000000E10BFFF7000B107FF8000000
00000000D203FFFF4048003FFB000000
00000000D2009FFFE2C1000FFE000000
00000000D2001EFFFF90000CFF400000
00000000E10007FFFF200009FF800000
00000001E00000DFF9000006FFC00000
00000003B000005FF2000003FFF20000
000000068000000B90000000FFF80000
5ED3000C3000000100000000DFFE2000
DFFE206C0000000000000000DFFFD510
EFFFECF30000000000000018FFFFFFF3
9FFFFF700000000000002BDA73200110
19EEB400000000000000010000000000
ENDCHAR
STARTCHAR N
ENCODING 78
SWIDTH 799 0
DWIDTH 22 0
BBX 23 27 0 -6
BITMAP
000124200000000000025830
DFFFFFF6000000EEEEFFC810
002BFFFF500000028FF60000
0004FFFFF40000000BE00000
0002FAFFFE30000008C00000
0000F28FFFD2000007A00000
0000E20BFFFC100006900000
0000E101EFFFB00006900000
0000D1004FFFF90006800000
0000D10008FFFF7007800000
0000D10000CFFFF608700000
0000C100002EFFFF6B700000
0000C1000005FFFFFF600000
0000C10000009FFFFF600000
0000C20000000CFFFF600000
0000C200000002EFFF500000
0000C2000000004FFF500000
0000C20000000007FF400000
0000C200000000009F300000
0000C200000000000A200000
0000D3000000000000000000
0000E4000000000000000000
0001F5000000000000000000
0006F8000000000000000000
016EFE300000000000000000
9FEEFFE71000000000000000
0000037BA000000000000000
ENDCHAR
STARTCHAR O
ENCODING 79
SWIDTH 747 0
DWIDTH 21 0
BBX 21 21 0 1
BITMAP
0000016ADEEDB720000000
00006ED62025CFFA200000
0009FC10000008FFE40000
009FE2000000009FFF4000
04FF80000000001EFFE100
0CFF300000000008FFF900
3FFE000000000002FFFF10
8FFB000000000000DFFF50
BFFA000000000000AFFF80
CFF90000000000007FFFA0
DFFA0000000000005FFFB0
CFFB0000000000005FFFA0
AFFE0000000000004FFF80
7FFF2000000000005FFF50
3FFF6000000000007FFF10
0CFFC00000000000AFFA00
04FFF40000000001EFF200
009FFD1000000008FF6000
0009FFB10000005FF70000
00006DFE720139FD400000
00000059CEFEDA50000000
ENDCHAR
STARTCHAR P
ENCODING 80
SWIDTH 623 0
DWIDTH 17 0
BBX 18 25 0 -4
BITMAP
000000136ADEED9200
CEEEEFFFF9216EFF40
0027EFFFC00007FFD0
00006FFF700001FFF4
00000EFF500000EFF6
00000CFF400000DFF6
00000BFF300000EFF5
00000AFF300001FFF2
00000AFF200005FFB0
00000AFF20000CFF30
00000AFF4103BFE400
00000BFFCEFEC71000
00000BFF2000000000
00000CFF2000000000
00000DFF3000000000
00000EFF3000000000
00000FFF3000000000
00001FFF4000000000
00002FFF5000000000
00003FFF6000000000
00005FFF9000000000
00009FFFD000000000
0001EFFFF500000000
002CFFFFFE71000000
2AA63101369CB30000
ENDCHAR
STARTCHAR Q
ENCODING 81
SWIDTH 804 0
DWIDTH 23 0
BBX 33 34 0 -12
BITMAP
00000016ADEFEB83000000000000000000
000017E931137DFFB30000000000000000
0002CE300000009FFF7000000000000000
001DF40000000007FFF700000000000000
00BF900000000000AFFF40000000000000
06FF3000000000002FFFD0000000000000
0DFC00000000000009FFF5000000000000
3FF900000000000002FFFA000000000000
8FF700000000000000DFFE000000000000
AFF600000000000000AFFF100000000000
CFF6000000000000008FFF200000000000
DFF7000000000000006FFF100000000000
CFF8000000000000005FFF000000000000
BFFB000000000000006FFE000000000000
8FFE000000000000007FFA000000000000
4FFF400000008DFD719FF7000000000000
0EFFB000000A712AFCCFF1000000000000
07FFF300003B0000CFFF90000000000000
01DFFC00007600004FFE10000000000000
003EFF90009400001FFE10000000000000
0003EFFB10A30001BFFF70000000000000
00001AFFE8B3026DA7FFD0000000000000
00000027BEFEDB7203FFF4000000000000
000000000000000001FFF9000000000000
000000000000000000CFFE000000000000
0000000000000000009FFF400000000000
0000000000000000006FFFA00000000610
0000000000000000002FFFF20000000A00
0000000000000000000CFFFA0000002C00
00000000000000000007FFFF600000A800
00000000000000000001EFFFF9202AF200
000000000000000000006FFFFFFFFF9000
0000000000000000000007FFFFFFFB0000
00000000000000000000003ADFEB600000
ENDCHAR
STARTCHAR R
ENCODING 82
SWIDTH 869 0
DWIDTH 24 0
BBX 26 21 0 -1
BITMAP
000012469CEFEA400000000000
DFFFFFFFC313CFF70000000000
027FFFFF20001FFF3000000000
0007FFFB00000AFF9000000000
0001FFF9000009FFB000000000
0000CFF7000009FFC000000000
0000AFF600000CFFB000000000
00008FF600003FFF7000000000
00006FF60002DFFF2000000000
00004FF6148EFFF80000000000
00003FFFFFFFFF900000000000
00002FF700DFF6000000000000
00001FF8008FFA000000000000
00000FF8002FFF200000000000
00000EF9000BFF900000000080
00000DFB0003FFF400000000A1
00000DFC00009FFE30000000B2
00001FFE00001DFFE4000001D1
00019FFF500002DFFFA5113BA0
1DFEEDFFE500001AFFFFFFFD20
000000025960000039DEFD8100
ENDCHAR
STARTCHAR S
ENCODING 83
SWIDTH 517 0
DWIDTH 14 0
BBX 16 27 -1 -3
BITMAP
0000000000000020
00000000000000A0
00000018CED921B0
000002DF6116DD90
00000CF800004F70
00004FF500000B60
00007FF500000740
00008FFA00000330
00005FFF30000000
00001EFFD1000000
000008FFFB000000
000001DFFF900000
0000004FFFF70000
00000007FFFF5000
000000009FFFE200
000000000CFFFC00
0000000002EFFF60
24000000006FFFD0
1C000000000CFFF5
0C3000000006FFF8
09A000000001FFFA
06F200000000DFF9
03FB00000000CFF6
02FF60000000EFF2
02FFF5000005FF80
03E77DA4116EF900
0540005BEFDA3000
ENDCHAR
STARTCHAR T
ENCODING 84
SWIDTH 659 0
DWIDTH 18 0
BBX 20 29 0 -4
BITMAP
4FDA864211000136ADE2
6FFFFFEEEEFFFFFFFFF4
5FF7200000FF50138FF3
2FA0000001FF500008F2
0E80000002FF500004F0
0A90000003FF500001C0
06B0000003FF50000070
01D0000004FF50000000
00B2000005FF50000000
0045000006FF50000000
0000000006FF50000000
0000000007FF50000000
0000000008FF50000000
0000000009FF50000000
0000000009FF50000000
000000000AFF50000000
000000000BFF50000000
000000000CFF50000000
000000000CFF50000000
000000000DFF50000000
000000000EFF60000000
000000000FFF70000000
000000002FFF90000000
000000006FFFE1000000
00000000CFFFFB410000
00000007FFFFFFFFE600
0000006FE85200000000
000008C5000000000000
00005500000000000000
ENDCHAR
STARTCHAR U
ENCODING 85
SWIDTH 690 0
DWIDTH 19 0
BBX 21 21 0 1
BITMAP
00000000027A0000000000
00000016BFB30000000000
02479CFFF6000000000000
DFFFFFFF80000000000010
029FFFFF101DEDBAACB860
000DFFFC000025CFFB0000
000AFFF90000000CF50000
0009FFF700000005F30000
0008FFF600000002F20000
0007FFF600000000F10000
0007FFF600000000E10000
0006FFF700000000E10000
0005FFF800000000D00000
0003FFFA00000000D00000
0001FFFD00000002C00000
0000CFFF20000005900000
00006FFF7000000B400000
00000DFFE200006E000000
000004FFFD4027F6000000
0000005EFFFFFF90000000
000000028DFEC500000000
ENDCHAR
STARTCHAR V
ENCODING 86
SWIDTH 798 0
DWIDTH 22 0
BBX 25 22 0 0
BITMAP
00000000002610000000000000
000001359C7100000000000000
AFEEFFFFF10000000000000560
0026DFFFF10000000000008D20
00001CFFF500000000004CD200
000002EFFB000000248DFD2000
0000007FFF20004FFFFFE30000
0000000DFF90000002EF700000
00000007FFF2000000DC000000
00000001EFFA000001F5000000
000000007FFF300005C0000000
000000001FFFB0000960000000
0000000009FFF4000C00000000
0000000003FFFC005700000000
0000000000CFFF70B100000000
00000000005FFFE89000000000
00000000000EFFFF3000000000
000000000008FFFC0000000000
000000000002FFF50000000000
000000000000AFE00000000000
0000000000003F800000000000
00000000000009200000000000
ENDCHAR
STARTCHAR W
ENCODING 87
SWIDTH 1120 0
DWIDTH 31 0
BBX 36 25 -1 -2
BITMAP
000000000000000000000000013000000000
00000000000000000000000001BEA6420000
0000000000000000000000000003BFFFFFFB
00000000000000000000000000000DFD4100
00000000000000000000000000000CF30000
00000001B10000000000000000001F800000
0000004E500000000000000000005E100000
00003AFD00000000000000000000A9000000
037BFFFC00000000000000000001E2000000
8A9CFFFE00000002500000000006A0000000
00009FFF3000000AF3000000000C40000000
00001EFF8000003FFD000000003C00000000
000008FFE00000BCFF800000009600000000
000002FFF5000582FFF3000001D000000000
000000CFFB000C10BFFC0000078000000000
0000008FFF3077004FFF70000D1000000000
0000003FFFB2D1000CFFF200690000000000
0000000DFFFE700006FFFC00D20000000000
00000008FFFE100000EFFF98B00000000000
00000002FFF60000008FFFFF400000000000
00000000CFD00000001FFFFC000000000000
000000006F6000000009FFF5000000000000
000000001A0000000002FFD0000000000000
00000000000000000000AF60000000000000
000000000000000000002B00000000000000
ENDCHAR
STARTCHAR X
ENCODING 88
SWIDTH 868 0
DWIDTH 24 0
BBX 25 23 0 -1
BITMAP
00000000000130000000000000
0000012479DF80000000000000
DFFFFFFFFFF700002100000000
01259EFFFFF400001982000000
000002BFFFF7000000AFC85000
0000000AFFFD0000008D312000
00000000BFFF600000C2000000
000000001EFFE1000660000000
0000000004FFF9001900000000
00000000009FFF40A200000000
00000000001EFFEA9000000000
000000000008FFFF3000000000
000000000008FFFF6000000000
00000000001E8EFFD000000000
0000000000A804FFF600000000
0000000006B0008FFD10000000
000000003E20000DFF80000000
00000001D6000003FFF2000000
0000002DD00000009FFB000000
000249EF800000001EFF700000
1EFFFFFF900000012CFFF70000
0011359EF7000BFEEEEFFFD610
000000005A1000000000135740
ENDCHAR
STARTCHAR Y
ENCODING 89
SWIDTH 796 0
DWIDTH 22 0
BBX 25 29 0 -4
BITMAP
00000000160000000000000000
0001358CD60000000000000000
8FFFFFF8000000000CC7421000
027EFFF600000000017FFFFFA0
0002DFFE10000000003F720000
00002EFFB000000000B5000000
000004FFF90000000780000000
0000006FFF7000004B00000000
00000009FFF60002D100000000
00000000CFFF702D4000000000
000000002EFFFBD80000000000
0000000007FFFFD10000000000
0000000000CFFF600000000000
00000000004FFF200000000000
00000000000EFF100000000000
00000000000CFF100000000000
00000000000BFF100000000000
00000000000BFF100000000000
00000000000CFF200000000000
00000000000CFF300000000000
00000000000EFF300000000000
00000000000FFF400000000000
00000000002FFF500000000000
00000000004FFF700000000000
00000000008FFF900000000000
0000000026FFFFC00000000000
0000004EFFFFFFF70000000000
00000000000147AEB000000000
00000000000000002000000000
ENDCHAR
STARTCHAR Z
ENCODING 90
SWIDTH 627 0
DWIDTH 18 0
BBX 18 24 1 -3
BITMAP
310000000000000000
6E9521011369300000
5FFFFFFFFFFF200000
5FC4101DFFFB000000
5D10000EFFF6000000
7700003FFFE1000000
8400007FFF90000000
910000BFFF40000000
700000FFFD00000000
000004FFF700000000
000008FFF100000000
00000CFFB000000000
00002FFF5000000000
00006FFE0000006000
0000AFF90000006400
0000EFF40000005800
0004FFD00000005C00
0008FF800000006F10
000DFF30000000AF50
003FFD00000002FF90
008FF80000005EFFD0
00CFF40136AEFFFFF2
02FFFDDC9642101351
04EB74100000000000
ENDCHAR
STARTCHAR bracketleft
ENCODING 91
SWIDTH 344 0
DWIDTH 10 0
BBX 10 29 0 -6
BITMAP
003EECA751
008FF50231
00BFD00000
00EFA00000
01FF700000
02FF600000
04FF400000
06FF300000
08FF100000
0AFF100000
0BFF000000
0DFE000000
0EFE000000
0FFD000000
2FFC000000
3FFC000000
4FFB000000
5FFB000000
6FFB000000
7FFA000000
8FFA000000
9FFA000000
AFFA000000
AFFA000000
AFFB000000
AFFD000000
AFFF100000
7FFF910000
06BDEFFEA0
ENDCHAR
STARTCHAR backslash
ENCODING 92
SWIDTH 347 0
DWIDTH 10 0
BBX 10 31 0 -4
BITMAP
4000000000
9500000000
6B00000000
2F10000000
0C40000000
0880000000
04C0000000
00E1000000
00B6000000
006A000000
002E000000
000D300000
0009700000
0005C00000
0001F10000
0000C50000
00008A0000
00004E0000
00000E3000
00000A8000
000006C000
000002F200
000000C600
0000008A00
0000004E00
0000000E40
0000000A80
00000005C0
00000001E1
00000000A5
0000000034
ENDCHAR
STARTCHAR bracketright
ENCODING 93
SWIDTH 334 0
DWIDTH 9 0
BBX 10 26 0 -6
BITMAP
0000268100
05ADFFF500
0331AFF700
00008FF900
00007FFA00
00006FFC00
00005FFD00
00004FFF00
00004FFF10
00003FFF20
00002FFF40
00002FFF50
00001FFF60
00000FFF80
00000FFF90
00000FFFA0
00000EFFC0
00000EFFD0
00000EFFE0
00000FFFF0
00001FFFF1
00005FFFF1
0000CFFC50
001AFA3000
05D9200000
7920000000
ENDCHAR
STARTCHAR asciicircum
ENCODING 94
SWIDTH 658 0
DWIDTH 18 0
BBX 16 7 1 15
BITMAP
0000001C30000000
000000AFD1000000
000008FFFC100000
00007FFEFFC20000
001AFB218FFE6000
05DD5000029FFC50
6C60000000016BEB
ENDCHAR
STARTCHAR underscore
ENCODING 95
SWIDTH 678 0
DWIDTH 19 0
BBX 17 2 1 -9
BITMAP
0346789ABCCDEEFF50
5BA987543322110000
ENDCHAR
STARTCHAR grave
ENCODING 96
SWIDTH 278 0
DWIDTH 8 0
BBX 6 6 1 21
BITMAP
6E4000
6FE300
0BFC00
01CF70
001CE1
0001A5
ENDCHAR
STARTCHAR a
ENCODING 97
SWIDTH 527 0
DWIDTH 15 0
BBX 16 20 0 -3
BITMAP
0003BEEB40000000
003D414EF6000000
00C60005FF200000
01F60001FF900000
02FE5000DFD00000
02FFF700BFF20000
00DFFB009FF50000
003CE5007FF70000
000000006FFA0000
0017CEFEDFFC0000
02DF92016FFF0000
0DF900001FFF2000
5FF300000FFF5000
8FF100000DFF7000
8FF400002EFFA000
5FFD4027DAFFC005
0CFFFFFE35FFF10A
019EFD8101FFF83A
00000000009FFFF6
000000000008EE90
ENDCHAR
STARTCHAR b
ENCODING 98
SWIDTH 582 0
DWIDTH 16 0
BBX 19 32 -3 -1
BITMAP
00000063000000000000
000000D4000000000000
000009F5000000000000
0137DFF5000000000000
2FFFFFF6000000000000
0101BFF6000000000000
00003FF7000000000000
00000FF7000000000000
00000EF8000000000000
00000DF9000000000000
00000DFA000000000000
00000CFA000000000000
00000CFB000000000000
00000BFC000000000000
00000AFD000000000000
00000AFE000000000000
000009FF000000000000
000008FF003ADFD92000
000008FF275117FFE300
000007FFA100007FFD10
000007FF5000000EFF60
000006FF6000000AFFA0
000006FF80000008FFC0
000005FF90000007FFC0
000005FFB0000008FFB0
000004FFD0000009FF80
000004FFF100000DFF20
000003FFF700005FF900
000005FFFE5116FFA000
000009FFFFFFFEB50000
00018FE9643210000000
002EA400000000000000
ENDCHAR
STARTCHAR c
ENCODING 99
SWIDTH 437 0
DWIDTH 12 0
BBX 12 15 0 2
BITMAP
00004AEFD810
000A714FFFB0
00A9000DFFF2
06F2000BFFF1
0DD00003DE70
3FB000000000
7FB000000000
8FB0000002A0
8FE000000096
7FF20000004B
3FF90000005C
0DFF400000A9
05FFF82029F3
007FFFFFFF70
0003AEFEA400
ENDCHAR
STARTCHAR d
ENCODING 100
SWIDTH 523 0
DWIDTH 15 0
BBX 16 27 0 1
BITMAP
0000000000049000
00000000019FA000
000000028EFFA000
0000003D8CFFA000
0000000008FF9000
0000000007FF9000
0000000006FF9000
0000000006FF9000
0000000005FF8000
0000000005FF8000
0000000005FF8000
0000000004FF7000
0000000004FF7000
0000000004FF6000
0000000003FF6000
0000000003FF6000
0006BEFEC9FF6000
01CFF82027FF5000
0CFF700002FF5000
4FFE100002FF5000
8FFC000002FF5000
AFFB000001FF4000
9FFC000001FF4000
5FFE100002FF4000
1DFF700005FF6000
03EFF7203DFFD400
0018CEFEECBABCB2
ENDCHAR
STARTCHAR e
ENCODING 101
SWIDTH 434 0
DWIDTH 12 0
BBX 12 15 0 1
BITMAP
00004ADED810
0019FA21AFC1
00AFC0001EF7
06FF50000CFA
0DFF00000CFA
3FFC00001FF8
6FFB00009FE1
8FFB1029FE40
8FFEDFFC8200
6FFD00000083
3FFF10000059
0CFF6000005A
04FFD1000087
005FFD5117C1
00028DEEC810
ENDCHAR
STARTCHAR f
ENCODING 102
SWIDTH 299 0
DWIDTH 8 0
BBX 16 36 -2 -5
BITMAP
0000000018EEC500
00000001C8117F60
0000000980000CE0
0000002F20000DF2
0000008B00019FF3
000000D8007EFFF2
000002F604FFFFC0
000005F405FFFF50
000008F300AED600
00000AF300000000
00000CF400000000
00001FFA11470000
0001AFFFFB840000
2ACFFFFB10000000
02106FF700000000
00004FF700000000
00003FF800000000
00003FF800000000
00003FF800000000
00003FF900000000
00002FF900000000
00002FFA00000000
00002FFA00000000
00002FFB00000000
00002FFB00000000
00002FFC00000000
00002FFC00000000
00002FFD00000000
00002FFE00000000
00002FFE00000000
00002FFF00000000
00002FFF20000000
00004FFFB3100000
0000AFFFFFF70000
003BC73100000000
0063000000000000
ENDCHAR
STARTCHAR g
ENCODING 103
SWIDTH 567 0
DWIDTH 16 0
BBX 18 28 -1 -11
BITMAP
0000000000005CED60
00000000000551EFF4
00000000001600EFF9
00004AEFECE700FFF8
0008FFD415EF607EC1
004FFF30007FF30000
00BFFC00002FFA0000
00EFFA00001FFC0000
00EFF900001FFC0000
00CFFB00004FF90000
005FFF2000AFF20000
0009FFC217FF600000
00004DFFED93000000
0001CC400000000000
0007F6000000000000
0003FD510000000000
000029FFEC96200000
00018F9136BFFA2000
002DF9000005FFE200
02EFD00000006FFA00
0AFF600000000EFE00
1FFF300000000BFF00
4FFF300000000AFE00
4FFF500000000CF800
1FFFA00000002FE100
09FFF4000000BE2000
01BFFF82015CA10000
0005ADFFEB82000000
ENDCHAR
STARTCHAR h
ENCODING 104
SWIDTH 566 0
DWIDTH 16 0
BBX 17 30 -1 0
BITMAP
000000780000000000
00002BF60000000000
026BFFF40000000000
4ECBFFF20000000000
00009FF00000000000
00005FE00000000000
00005FD00000000000
00005FB00000000000
00006FA00000000000
00007F900000000000
00008F800000000000
00009F700000000000
0000AF600000000000
0000BF600000000000
0000CF500000000000
0000DF400000000000
0000EF406DFC500000
0000FF39419FF60000
0001FF86001EFE1000
0003FFD0000AFF4000
0004FFA00009FF6000
0005FF600008FF7000
0007FF300008FF8000
0008FF100008FF7000
000AFF000008FF7000
000CFD000009FF7000
001FFD00000AFF7000
019FFD00000CFFC100
EFFFFF50029FDBCEB0
110148DB0441000000
ENDCHAR
STARTCHAR i
ENCODING 105
SWIDTH 301 0
DWIDTH 8 0
BBX 8 19 0 2
BITMAP
001BE900
004FFF10
001CE800
00000000
00000750
0137DF40
7FFFFF30
01AFFF10
004FFE00
003FFC00
003FFB00
003FFA00
003FF800
003FF700
003FF600
004FF500
005FF500
01BFFC30
5FDCDEFD
ENDCHAR
STARTCHAR j
ENCODING 106
SWIDTH 367 0
DWIDTH 10 0
BBX 14 32 -4 -14
BITMAP
000000006EC200
00000000CFF600
000000006EC200
00000000000000
00000000000000
00001210125820
000017CFFFFF80
00000005EFFFC0
000000004FFFE0
000000000AFFF2
0000000003FFF4
0000000000EFF5
0000000000AFF7
00000000007FF8
00000000004FF9
00000000001FFA
00000000000FFA
00000000000DFA
00000000000CFA
00000000000BF9
00000000000BF8
00000000000BF7
003CFC30000CF5
03FFFFC0000DF3
0BFFFFC0000EE0
0FFFFE40002FB0
2FF94000005F60
1F90000000AE10
0D70000003F700
08B000001CC000
01CA3115DB1000
0007CFEB600000
ENDCHAR
STARTCHAR k
ENCODING 107
SWIDTH 567 0
DWIDTH 16 0
BBX 18 32 -2 -4
BITMAP
000001B20000000000
00004DF20000000000
037CFFF10000000000
CEDEFFF10000000000
0000BFF10000000000
00005FF20000000000
00003FF20000000000
00002FF20000000000
00001FF30000000000
00001FF30000000000
00001FF40000000000
00000FF40000000000
00000FF50200000000
00000FF607E8420000
00000FF6003DFFFA00
00000EF7000CB31000
00000EF70088000000
00000EF80790000000
00000DF98F60000000
00000DFEFFA0000000
00000DFD8FE1000630
00000DFC2FF60000B1
00000CFD0CFD100066
00000CFE05FF900059
00000CFF00BFF921C8
00000CFF201CFFFFF2
00000CFF30018DFD50
00000CFF5000000000
00000EFF8000000000
00007FFFE300000000
038BEDCCDEEE300000
012000000000000000
ENDCHAR
STARTCHAR l
ENCODING 108
SWIDTH 354 0
DWIDTH 10 0
BBX 12 26 -2 0
BITMAP
000000080000
0000005F1000
000004EF1000
00004EFF1000
0008FFFF1000
05DFFFFF2000
4D726FFF2000
00002FFF2000
00000EFF3000
00000DFF4000
00000BFF5000
000009FF5000
000008FF6000
000006FF7000
000005FF8000
000003FF9000
000002FFA000
000000FFA000
000000EFB000
000000CFC000
000000BFD000
000000AFE000
0000009FF200
000002DFFC30
0004FFFFFFFA
000132100122
ENDCHAR
STARTCHAR m
ENCODING 109
SWIDTH 708 0
DWIDTH 20 0
BBX 20 13 0 2
BITMAP
00002100000000000000
0006E600000000000000
4AEFF818EE8019EFB100
017FFABFFFF7BFFFFA00
000EFF915FFF805FFE00
000BFF100DFE000DFF00
0008FD000CFA000CFF00
0007FC000DF9000DFD00
0006FD004FFB001FFC00
000AFF15FFFF92AFFC00
09EFFFD61025628DFE00
01210134100000004D80
00000000000000000063
ENDCHAR
STARTCHAR n
ENCODING 110
SWIDTH 584 0
DWIDTH 16 0
BBX 17 19 0 -1
BITMAP
000080000000000000
0006F2000000000000
005FF50019EEB30000
29FFF701CFFFFE3000
526FF90A603EFFA000
000FFB370005FFE000
000CFD910000FFF100
0008FFA00000CFF200
0005FF900000BFF100
0002FF700000BFE000
0000EF700000BFD000
0000BF700000CFB000
00009F700000DF9000
00007F900001FF7000
00006FC00018FF6000
00008FF30DFFFF7000
00AEFFFE50249EC100
002210243000018C10
000000000000000210
ENDCHAR
STARTCHAR o
ENCODING 111
SWIDTH 503 0
DWIDTH 14 0
BBX 14 13 0 2
BITMAP
00017CEFD93000
004EF9117FF700
03EFC00007FF50
0BFF600001EFD0
2FFF300000AFF4
5FFF2000007FF7
6FFF2000005FF7
5FFF4000005FF6
2FFF7000005FF3
0BFFC000007FD0
02EFF50000CF40
003DFE612AE500
00017CEFD92000
ENDCHAR
STARTCHAR p
ENCODING 112
SWIDTH 509 0
DWIDTH 14 0
BBX 14 27 0 -12
BITMAP
00001A00000000
0002DD00000000
028EFD05CFE910
3C8FFD7415FFC0
000AFF70009FF6
0008FF10005FFA
0008FD00003FFC
0008FB00002FFC
0008FA00002FFB
0008FB00004FF7
0009FD00007FF2
0009FF2000DFA0
0009FFC219FC10
000AFF8DFD8100
000AFF10000000
000AFF10000000
000BFF10000000
000BFF10000000
000CFF10000000
000CFF20000000
000DFF20000000
000DFF30000000
000EFF50000000
002FFF70000000
008FFFD1000000
3BEEFFFD400000
00000358900000
ENDCHAR
STARTCHAR q
ENCODING 113
SWIDTH 505 0
DWIDTH 14 0
BBX 15 27 0 -12
BITMAP
0000000000001200
003AEFD92EFE8200
04FFD413BFF80000
1EFF20003FF60000
5FFB00001FF60000
8FF900001FF60000
8FF900001FF60000
6FFC00002FF60000
1FFF30004FF50000
06FFD412BFF50000
004BEEC74FF50000
000000004FF50000
000000004FF50000
000000004FF50000
000000004FF50000
000000004FF50000
000000005FF50000
000000005FF50000
000000005FF50000
000000006FF50000
000000006FF50000
000000006FF50000
000000007FF60000
00000000BFF70000
00000EFFFFFB0000
0000001247CFC500
0000000000027B10
ENDCHAR
STARTCHAR r
ENCODING 114
SWIDTH 414 0
DWIDTH 12 0
BBX 14 19 0 0
BITMAP
000000019EFB20
0000930CA21AD0
014BF37A000AF3
5FFFF4D204EFF3
006FFAC00AFFE1
001FFF8005ED50
000EFF60000000
000DFF50000000
000CFF40000000
000AFF50000000
0009FF60000000
0008FF70000000
0007FF90000000
0006FFB0000000
0005FFE0000000
0004FFF1000000
0004FFF7000000
004CFFFFF90000
0CC95321000000
ENDCHAR
STARTCHAR s
ENCODING 115
SWIDTH 482 0
DWIDTH 14 0
BBX 15 21 -1 -3
BITMAP
0000000000009000
0000004BDEB6D000
000007FB215FB000
00002FF100099000
00005FF000067000
00005FF500065000
00001FFE10021000
000007FFD1000000
000000BFFD200000
0000001CFFE30000
00000001DFFE3000
000000002EFFD100
0000060003FFF900
00006800007FFF20
0001E300000EFF60
0009F000000AFF70
006FE0000009FF60
05EFF100000BFF30
3A12D800002FFB00
00001C8104DFC100
0000006CEFC71000
ENDCHAR
STARTCHAR t
ENCODING 116
SWIDTH 434 0
DWIDTH 12 0
BBX 12 22 0 0
BITMAP
0000001D2000
0000006F3000
000000BF0000
000001FC0000
000008F90000
00003EF70000
0016EFFEDF50
6CFFFFF82000
110BFF900000
000DFF300000
002FFD000000
006FFA000000
009FF7000000
00BFF4000000
00DFF3000000
00EFF2000000
00EFF20008E6
00CFF4000BFC
008FF80002EB
002FFE1000A7
0005FFB314C1
00003AEFD810
ENDCHAR
STARTCHAR u
ENCODING 117
SWIDTH 744 0
DWIDTH 21 0
BBX 21 15 0 1
BITMAP
00001B000000002C100000
0002CF10000149FF300000
027EFF3000BEEFFF400000
6DADFF60000008FF500000
0004FF80000003FF600000
0000FFB0000001FF800000
0000DFE0000002FF900000
0000BFF2000003FFB00000
00009FF6000005EFC00000
00007FFB0000099FE00000
00003FFF30001D5FF50000
00000EFFD413C92FFFCDB0
000008FFFFFFF309864200
000001CFFFFF7000000000
00000019DFC50000000000
ENDCHAR
STARTCHAR v
ENCODING 118
SWIDTH 600 0
DWIDTH 17 0
BBX 17 17 0 -1
BITMAP
000002980000000000
00039FC00000000000
27CFFFC00000000000
533DFFF10000000210
0005FFF5003EEDFC50
0000DFFA00006F5000
00006FFF10004D0000
00000EFF6000770000
000007FFC000B20000
000001EFF301C00000
0000008FF904700000
0000002FFE19200000
00000009FF8B000000
00000002FFF7000000
00000000AFF2000000
000000002FB0000000
000000000840000000
ENDCHAR
STARTCHAR w
ENCODING 119
SWIDTH 745 0
DWIDTH 21 0
BBX 21 15 0 -1
BITMAP
0000004400000000247BA0
00003B90000000047FD510
027BFF30000930000E4000
ADFFFF50002FA0002E0000
005FFF80007FF3005A0000
000EFFC000DFFA00860000
0009FFF104AFFF20B20000
0004FFF50A2BFFA0C00000
0000EFFA1B03FFF7900000
00009FFE8500AFFF500000
00003FFFE1002FFE100000
00000DFF900008FA000000
000007FF300000B3000000
000001FC00000000000000
0000008400000000000000
ENDCHAR
STARTCHAR x
ENCODING 120
SWIDTH 548 0
DWIDTH 15 0
BBX 17 17 -1 1
BITMAP
000000016C30000000
000025AEC200000000
1EFFFFFF5000000000
0028FFFF6034200010
00006FFFA04AFFFC70
00000AFFE000E81000
000002FFF509800000
000000AFFC7A000000
0000002FFFD1000000
00000009FFA0000000
00000002FFE0000000
00000004FFF5000000
0000001A2EFB000000
000001B209FF300000
00026D9103FFD30000
007DA78328FFFFF800
00000005E952000000
ENDCHAR
STARTCHAR y
ENCODING 121
SWIDTH 659 0
DWIDTH 18 0
BBX 19 28 0 -13
BITMAP
0000004C400000000000
00004BE6000000014710
037DFF30009EDDEFF900
7EFFFC0000039FFFD000
00BFFB0000000EFFA000
008FFC0000000BFF9000
005FFD0000000AFF8000
002FFF0000000BFF7000
000EFF3000000CFF6000
000AFF7000000FFF4000
0005FFD000004FFF3000
0001EFF60000BBFF1000
00006FFF7119A8FE0000
00000AFFFFFD19FC0000
0000007DFD9109F90000
0000000000000BF60000
0000000000000CF30000
0000000000000EE00000
0000000000001FB00000
0000000000003F600000
00004CEB20007F200000
0002FFFFA000BC000000
00093AFFC002F6000000
000A02DE5008D0000000
000B0000002F50000000
000A400001C900000000
0002D5115D9000000000
00003BEEB40000000000
ENDCHAR
STARTCHAR z
ENCODING 122
SWIDTH 460 0
DWIDTH 13 0
BBX 13 16 0 0
BITMAP
1EC96421000000
2FFEBBCEFFF200
3FA00001FFC000
4E100009FF5000
5A00002FFD0000
660000AFF60000
620003FFD00000
00000CFF600000
00005FFE000000
0001EFF7000000
0008FFE1000070
003FFF800000B0
00CFFE100004D0
06FFFA01359ED0
1EFFFFFEEFFFA0
39753100000000
ENDCHAR
STARTCHAR braceleft
ENCODING 123
SWIDTH 460 0
DWIDTH 13 0
BBX 13 36 0 -9
BITMAP
00000019EEC500
000000CF513A40
000006FA000000
00000BF8000000
00000EF9000000
00000FFA000000
00000FFD000000
00000EFF100000
00000CFF500000
00000AFF800000
000009FFA00000
000008FFB00000
000008FFB00000
00000BFF800000
00004FFE100000
0004EFE4000000
27CFE920000000
5DF91000000000
005DC300000000
0001DF40000000
00004FE1000000
00000DF7000000
00000AFD000000
000009FF100000
000009FF300000
00000AFF300000
00000BFF400000
00000CFF400000
00000DFF400000
00000DFF400000
00000EFF500000
00000DFF700060
00000BFFA00280
000007FFF41A70
000001DFFFFE10
0000002AEEC400
ENDCHAR
STARTCHAR bar
ENCODING 124
SWIDTH 368 0
DWIDTH 10 0
BBX 3 29 4 -5
BITMAP
A200
C300
B300
B300
B400
A400
A500
9500
9600
8600
8600
7700
7700
6800
6900
5900
4A00
4A00
3B00
2B00
2C00
1C00
0D00
0D00
0D00
0D00
0D10
0C10
0910
ENDCHAR
STARTCHAR braceright
ENCODING 125
SWIDTH 476 0
DWIDTH 13 0
BBX 13 30 0 -7
BITMAP
006DFEA3000000
0AFFFFFF400000
6E416FFFD00000
94000BFFF20000
000008FFF50000
000006FFF50000
000004FFF50000
000002FFF50000
000000EFF50000
000000BFF50000
0000004FF80000
00000006EF8770
0000000016CE30
0000000004E400
000000001EF100
000000005FF100
000000005FF400
000000003FF800
000000001FFD00
000000000CFF20
0000000008FF60
0000000005FF90
0000000001FFB0
0000000000EFB0
0000000000DFA0
0000000000DF60
0000000000EE10
0000000007F500
00000014AE5000
000006EC820000
ENDCHAR
STARTCHAR asciitilde
ENCODING 126
SWIDTH 733 0
DWIDTH 21 0
BBX 19 5 1 5
BITMAP
00000000000000000B10
0018DFDA50000000AC00
02DFFFFFFE84114CF300
1C82137CFFFFFFFF5000
6400000027BEFE920000
ENDCHAR
STARTCHAR nonbreakingspace
ENCODING 160
SWIDTH 270 0
DWIDTH 8 0
BBX 1 1 0 0
BITMAP
00
ENDCHAR
STARTCHAR exclamdown
ENCODING 161
SWIDTH 247 0
DWIDTH 7 0
BBX 5 30 1 -3
BITMAP
2CE600
8FFE00
8FFE00
2DE600
000000
000000
000000
006000
02E000
03F200
03F400
04F600
04F800
05FA00
06FB00
06FD00
08FE00
09FF00
0AFF20
0CFF30
0DFF40
0FFF50
1FFF60
3FFF60
4FFF70
6FFF70
6FFF70
6FFF50
3FFF20
09E800
ENDCHAR
STARTCHAR cent
ENCODING 162
SWIDTH 799 0
DWIDTH 22 0
BBX 14 25 4 -6
BITMAP
00001000000000
00004500000000
00002900000000
00000B00000000
00000CCEFD8100
0003DF8114CE30
003EF760003FD0
01DF9090005FF4
07FF20A000DFF6
0DFD008303FFF4
2FFB004700BE90
5FFA001A000000
6FFB000B000000
6FFD0009300000
4FFF2005700018
0EFF8002B00066
08FFF400C002D1
00CFFF72A45E60
001BFFFFFFF700
00005ADFEE4000
000000000D1000
00000000096000
0000000004B000
0000000000E100
00000000007300
ENDCHAR
STARTCHAR sterling
ENCODING 163
SWIDTH 799 0
DWIDTH 22 0
BBX 17 26 3 -4
BITMAP
0000003ADFD9200000
000007F9213DE30000
00006F800008FC0000
0001EF20002EFF2000
0008FE0001DFFF3000
000CFF0007FFFF1000
000EFF1008FFFB0000
001FFF4002CEB20000
000FFF900000000000
000EFFE00000000000
000AFFF60021000000
0006FFFDAB82000000
0038FFFF5000000000
1CB7AFFFB000000000
00003FFFF200000000
00000BFFF700000000
000004FFFB00000000
000000CFFD00000000
0000007FFD00000000
0000002FFB00003700
0000000FF800000730
004CFECFF600000560
03B3027FFFC6202C50
0940007E3BFFFFFD00
079117C2005BEEB200
01AED7100000000000
ENDCHAR
STARTCHAR currency
ENCODING 164
SWIDTH 732 0
DWIDTH 21 0
BBX 18 21 1 0
BITMAP
000000000000850000
000000000005E10000
25000000002E800000
1D9006BEFFFF700000
02ECE931025AF60000
007F500000005E3000
00C80000000008B000
03E10000000003F000
08B00000000001F200
0B900000000002F100
0C800000000004D000
0AA000000000097000
07E1000000003D1000
01EA00000003E30000
005FC510149DE80000
000AFFFFEB603DA000
000DE200000001BC10
005F700000000008D3
00BE10000000000036
00D500000000000000
001000000000000000
ENDCHAR
STARTCHAR yen
ENCODING 165
SWIDTH 799 0
DWIDTH 22 0
BBX 21 30 1 -4
BITMAP
0000000002100000000000
11000126BD200000000010
9EFFFFFFD2000000006C40
006EFFFF800000259E9100
0002DFFFA0003EFFF60000
00003FFFF100000E800000
000008FFF700001D100000
000000DFFE100057000000
0000005FFF8000A1000000
0000000CFFE10380000000
00000005FFF90B30000000
00000000DFFFAD00000000
000000007FFFF900000000
000000001FFFF600000000
000000000AFFF400000000
0000000007FFF400000000
00001DDCCEFFFEDEEFFA00
0000022116FFF100000000
0000000003FFF000000000
0000001238FFFDEFE10000
000009FFEEFFF310000000
0000001006FFD000000000
0000000005FFC000000000
0000000005FFD000000000
0000000006FFE000000000
0000000008FFF100000000
000000000DFFFB40000000
000000009FFFFFFE300000
0000028DEA642110000000
00000B9400000000000000
ENDCHAR
STARTCHAR brokenbar
ENCODING 166
SWIDTH 341 0
DWIDTH 10 0
BBX 2 32 4 -7
BITMAP
92
A3
A3
A3
A3
B3
B3
B4
B4
B4
B4
93
00
00
20
93
94
94
95
95
95
96
95
95
A5
A5
A5
B5
B5
C5
C5
A2
ENDCHAR
STARTCHAR section
ENCODING 167
SWIDTH 546 0
DWIDTH 15 0
BBX 13 32 1 -9
BITMAP
000029DFEB4000
0006FA313CF700
004FB00004FF40
00CF600005FFA0
02FF50000AFFC0
04FF90000CFFA0
03FFF30005ED30
01FFFC10000000
00BFFFC2000000
002EFFFE400000
007DEFFFF70000
07F32CFFFF9000
2FC0006EFFF900
7FB000019FFF40
9FE1000005EFB0
8FFA0000005FD0
4FFFA100000DD0
0BFFFD30000C90
01CFFFF7001E20
0009FFFFA1B600
00004DFFFE6000
0000008FFFB000
00000003DFF500
000000001CFC00
0000000001DF10
00000000006F30
00000000001F30
00000000000E10
0005ED20000C00
000CFFC0004500
0008FFF9136000
00008DFEB40000
ENDCHAR
STARTCHAR dieresis
ENCODING 168
SWIDTH 393 0
DWIDTH 11 0
BBX 8 3 2 18
BITMAP
0AE62DC0
3FFB6FF2
1CE53EB0
ENDCHAR
STARTCHAR copyright
ENCODING 169
SWIDTH 1023 0
DWIDTH 29 0
BBX 27 25 1 -4
BITMAP
0000000027BDEFEDA73000000000
0000003BC84210236AEC50000000
000008C4000000000016EB100000
0001B9000000000000001BD30000
000B900000000014000000BD1000
007B0000000000640000001DA000
01E2000006BEFEF400000005F300
07A00000BF8217F400000000E900
0D400009FA000076000000009D00
2F00002FF4000018000000006F10
5C00006FF2000004000000005F30
7A00008FF2000000100000004F30
8900008FF3000000A00000005F20
8A00006FF8000000B00000007F10
7B00002FFE20000680000000AD00
6D000009FFE6106E20000000EA00
3F300000AFFFFFF600000005F600
0D90000005BEFC500000000CE100
08F30000000000000000007F8000
01ED200000000000000005FD1000
005FD2000000000000007FE30000
0008FF7100000000004CFE400000
00006FFE952101358DFFC3000000
000002AFFFFFFFFFFFD600000000
000000026ADEFEDB830000000000
ENDCHAR
STARTCHAR ordfeminine
ENCODING 170
SWIDTH 558 0
DWIDTH 16 0
BBX 14 14 1 9
BITMAP
006DFE81000000
0AD216FC000000
4FA0008F600000
8FF2004FB00000
8FF7002FE00000
3DD3004FF10000
0018CFFFF20000
02DE612FF30000
0CF5000EF400A1
2FF1000FF500A3
4FF1003FF800A4
2FF812CCFE22E2
0CFFFFC3FFFFB0
02BEEB204CFC20
ENDCHAR
STARTCHAR guillemotleft
ENCODING 171
SWIDTH 608 0
DWIDTH 17 0
BBX 15 25 1 -7
BITMAP
0000000000000500
0000000000000B00
0000000000001D00
0000000018004B00
0000000087009800
00000003F200D500
0000001DA004F100
000000AF300BC000
00000AF9004F8000
0002CFE101DF3000
005EFF500AFE0000
19FFFA008FFF2000
7FFFF4007FFFA000
1BFFFC0008FFF200
00AFFF7000AFF800
000AFFF2001DFD00
0000AFFB0005FF20
00000AFF4000DF50
000001CFC0005F70
0000002EF5000E80
00000005FC000890
000000009F400280
000000001DB00010
0000000003E20000
0000000000430000
ENDCHAR
STARTCHAR logicalnot
ENCODING 172
SWIDTH 616 0
DWIDTH 17 0
BBX 15 7 1 6
BITMAP
0000111111111100
6FFEEEDDCCBBDFA0
0000000000000AD0
00000000000008C0
00000000000009B0
0000000000000990
0000000000000320
ENDCHAR
STARTCHAR uni00AD
ENCODING 173
SWIDTH 436 0
DWIDTH 12 0
BBX 10 2 1 5
BITMAP
2431001232
4ADEFFFED7
ENDCHAR
STARTCHAR registered
ENCODING 174
SWIDTH 1048 0
DWIDTH 29 0
BBX 27 26 1 -6
BITMAP
00000000159CDFEDB84000000000
00000029EA63100136AD71000000
000007E81000000000017C400000
0000AC2000000000000001B60000
000AB18EDEEFFFEC6000000A5000
006D1003BFF612AFF9000000B100
01E500004FF1000DFF2000003900
08C000002FF00009FF4000000A10
0D6000001FF0000AFF3000000560
2F2000001FF1000DFD0000000290
6E0000001FF1006FF500000000B0
7C0000001FF239FE5000000000B0
8C0000001FFFFFD10000000000B0
9C0000001FF38FF20000800000B0
8D0000002FF43FFA0000730000B0
7F0000002FF50BFF5000660001A0
4F3000004FF802EFE612C4000480
1E8000008FFD004EFFFFE1000840
0AD00017FFFF80029EFC30001C00
03F705FDCBBDFC30000000007600
009E20000000143000000002C000
001CD100000000000000001C2000
0001CD3000000000000003D40000
000019F81000000000019C200000
0000004BFA63101237BD61000000
0000000027ADEFEDB84000000000
ENDCHAR
STARTCHAR macron
ENCODING 175
SWIDTH 382 0
DWIDTH 11 0
BBX 9 1 1 22
BITMAP
4BCDEEFE20
ENDCHAR
STARTCHAR degree
ENCODING 176
SWIDTH 346 0
DWIDTH 10 0
BBX 8 7 1 20
BITMAP
02AED810
1DFFFFA0
7F612BF2
9A0002F4
7A0001F2
2E612A90
03BED800
ENDCHAR
STARTCHAR plusminus
ENCODING 177
SWIDTH 580 0
DWIDTH 16 0
BBX 14 10 1 4
BITMAP
0000001C100000
0000002F100000
0000002F100000
0000018F100000
0CFEDCCFBBABB7
0000000B000000
0000000B000000
0000000A000000
00000001000000
6FEDDCBBBBA700
ENDCHAR
STARTCHAR twosuperior
ENCODING 178
SWIDTH 365 0
DWIDTH 10 0
BBX 10 15 0 10
BITMAP
0006CEEB30
006714EFE1
0050008FF4
0000006FF4
0000008FF1
000000DF90
000006FC10
00005FA100
0019B40000
2AF9000001
05EF700064
002CFDAD70
0001CFF900
00001DC000
0000021000
ENDCHAR
STARTCHAR threesuperior
ENCODING 179
SWIDTH 371 0
DWIDTH 10 0
BBX 10 15 0 10
BITMAP
0121013000
09FFFFE100
08FFFF7000
07513C0000
0300920000
0003EB8200
0005DFFF60
000004EFF2
0000005FF9
2400000EFC
6400000DFC
6600000FF9
4C00005FF3
0CA204EF70
018DFEB400
ENDCHAR
STARTCHAR acute
ENCODING 180
SWIDTH 234 0
DWIDTH 7 0
BBX 5 6 1 21
BITMAP
003E20
01DE00
07F700
0DC000
4F3000
750000
ENDCHAR
STARTCHAR mu
ENCODING 181
SWIDTH 634 0
DWIDTH 18 0
BBX 17 26 1 -10
BITMAP
012000000000000000
BFB000000000000000
DFA000000024000000
DF9000004DFB000000
CF9000002FFD000000
CFA000000DFE000000
CFB000000AFF000000
BFD0000007FF200000
BFF1000006FF304800
AFF5000006FF500A40
AFFB000008FF800490
9FEE40000BDFC002B0
9FF4E512B67FF71890
8FF03CFD600CFFFF50
8FF100000001AEE700
7FF300000000000000
7FF400000000000000
7FF600000000000000
6FF700000000000000
6FF900000000000000
5FFB00000000000000
4FFD00000000000000
4FFF00000000000000
3FFF20000000000000
2FFE20000000000000
030000000000000000
ENDCHAR
STARTCHAR paragraph
ENCODING 182
SWIDTH 707 0
DWIDTH 20 0
BBX 20 34 0 -10
BITMAP
00000000000000000020
00000000000000005C80
00000000000146AEE300
0000369ACDFFFFFF3000
005DFFFFF4102FF90000
08FFFFFFE0000EF50000
4FFFFFFFD0000EF30000
BFFFFFFFC0000FF10000
DFFFFFFFB0000FF00000
FFFFFFFFA0000FE00000
DFFFFFFFA0001FD00000
9FFFFFFFA0001FD00000
1EFFFFFFA0002FC00000
03CFFFFF90002FD00000
0016DFFF90002FD00000
000007FFA0003FD00000
000000EFA0003FE00000
000000CFB0004FF00000
000000AFB0004FF00000
0000009FC0004FF10000
0000008FD0004FF20000
0000007FE0004FF40000
0000006FF0005FF50000
0000005FF1005FF70000
0000005FF2005FF90000
0000005FF3005FFC0000
0000004FF4004FFF3000
0000004FF5004FFFD510
0000005FF6003FFDCDE9
0000006FF60002100000
000000AFF70000000000
000005FFF70000000000
0004AFB7300000000000
02DB5100000000000000
ENDCHAR
STARTCHAR periodcentered
ENCODING 183
SWIDTH 238 0
DWIDTH 7 0
BBX 5 4 1 8
BITMAP
1BE900
8FFF30
8FFF30
2CE900
ENDCHAR
STARTCHAR cedilla
ENCODING 184
SWIDTH 332 0
DWIDTH 9 0
BBX 7 9 1 -7
BITMAP
00070000
000A0000
003C3000
007FFB10
002AFF90
0000AFC0
71007FB0
3B12DF50
05DFD500
ENDCHAR
STARTCHAR onesuperior
ENCODING 185
SWIDTH 336 0
DWIDTH 9 0
BBX 9 13 0 12
BITMAP
0000008100
000005E000
00005FD000
0019FFB000
03835FB000
00004FA000
00004FA000
00005FB000
00007FB000
0000BFD000
1215FFF100
29CEFFF800
0000259C90
ENDCHAR
STARTCHAR ordmasculine
ENCODING 186
SWIDTH 503 0
DWIDTH 14 0
BBX 14 13 0 8
BITMAP
00028DFEC71000
004A2027EFD200
01C000002DFD10
0880000003FF90
0D600000009FE0
0F700000003FF2
1F900000000EF3
0FC00000000DF3
0CF30000000CF0
06FC0000000EB0
00CFA000004F30
001CFC5104D600
00006BEFD93000
ENDCHAR
STARTCHAR guillemotright
ENCODING 187
SWIDTH 778 0
DWIDTH 22 0
BBX 20 27 1 -8
BITMAP
00000001000000000000
00000003500000000000
00000000D10000000000
300000009A0000000000
650000002F7000000000
3E10000007F600000000
0DC1000000BF70000000
05FD2000001DF9000000
00AFE7000001DFC30000
000BFFD710001BFF8100
0000AFFFFC73009FFE60
000006EFFFFF603FFFF4
0000002CFFE503EFFE50
0000003EFC203EFFC200
000001DFB101DFF90000
00000BFA000BFF700000
00007FA0006FF7000000
0003FC1001EF90000000
000BE20007FC00000000
004F50000EF300000000
00BA00004FA000000000
01E200009F3000000000
04800000BC0000000000
03100000D70000000000
00000000E20000000000
00000000C00000000000
00000000300000000000
ENDCHAR
STARTCHAR onequarter
ENCODING 188
SWIDTH 876 0
DWIDTH 25 0
BBX 24 27 0 -1
BITMAP
000000000000000000039000
0000008100000000001D3000
000005E00000000000990000
00005FD00000000005E10000
0019FFB0000000002E500000
03835FB000000000B9000000
00004FA000000008D1000000
00004FA00000004F30000000
00005FB0000001D800000000
00007FB000000AC000000000
0000BFD000006E2003600000
1215FFF10003F5000A800000
29CEFFF8001D90002F900000
0000259C909D10009FB00000
0000000005F30002EFC00000
000000002E7000097FE00000
00000000BB0000283FF00000
00000007D10000A21FF20330
0000003E400003900FF40930
000000C800000C200DF77F40
000008B000005A000CFFFF50
00004E200000DB9BDFFFFE50
0001D5000000444319FF1000
000A90000000000008FF6000
005D1000000000000BFFF710
00C3000000000006CFFEEEFD
002000000000000564100000
ENDCHAR
STARTCHAR onehalf
ENCODING 189
SWIDTH 762 0
DWIDTH 21 0
BBX 21 27 0 -1
BITMAP
0000000000000000000390
0000008100000000001D30
000005E000000000009900
00005FD00000000005E100
0019FFB0000000002E5000
03835FB000000000B90000
00004FA000000008D10000
00004FA00000004F300000
00005FB0000001D8000000
00007FB000000AC0000000
0000BFD000006E20000000
1215FFF10003F500000000
29CEFFF8001D907CFEA200
0000259C909D18615FFD00
0000000005F305000AFF20
000000002E70000008FF20
00000000BB0000000AFE00
00000007D10000001EF700
0000003E400000008FA000
000000C800000007F90000
000008B0000002AA300000
00004E200003BF70000010
0001D50000006EE6000730
000A9000000003DFDAD500
005D10000000002DFF7000
00C3000000000002EA0000
0020000000000000310000
ENDCHAR
STARTCHAR threequarters
ENCODING 190
SWIDTH 922 0
DWIDTH 26 0
BBX 26 27 0 -1
BITMAP
00000000000000000000084000
012101300000000000005C0000
09FFFFE1000000000002E30000
08FFFF7000000000000B800000
07513C0000000000007D100000
030092000000000003F3000000
0003EB82000000001D80000000
0005DFFF60000000AC00000000
000004EFF2000006E200000000
0000005FF900002E6000000000
2400000EFC0000CA0008000000
6400000DFC0009D1005C000000
6600000FF9005F3000CE000000
4C00005FF302E70005FF000000
0CA204EF700BB0000CFF200000
018DFEB4007E100057FF300000
0000000003F40000A0EF500000
000000001D80000660CF600600
000000009C00001C00AF805700
00000004E2000076009FB5E800
0000001D500001E1007FFFF900
000000A9000009D9ACFFFFF900
000006D100000344324FF50000
00002E3000000000004FFB0000
0000B70000000000006FFF9200
0004B000000000003BFFEEEFF3
00011000000000003741000000
ENDCHAR
STARTCHAR questiondown
ENCODING 191
SWIDTH 571 0
DWIDTH 16 0
BBX 16 25 0 -3
BITMAP
00000009EC200000
0000006FFFA00000
0000009FFFC00000
0000007FFF900000
0000001BEB100000
0000000000000000
0000000A60000000
00000000B3000000
0000000067000000
0000000096000000
00000004E1000000
0000005F80000000
000009FC00000000
0002CFF203CFD600
002EFF700EFFFF90
01DFFE002FFFFFF2
09FFF8001EFFFFF6
1FFFF40004DFFFF7
4FFFF3000007FFF6
5FFFF30000006FF3
3FFFF50000001FD0
0DFFFA0000002F60
05FFFF4000008C00
005EFFF72028C100
00016ADEFEB50000
ENDCHAR
STARTCHAR Agrave
ENCODING 192
SWIDTH 784 0
DWIDTH 22 0
BBX 23 33 0 -3
BITMAP
00008D300000000000000000
00008FE20000000000000000
00001CFB0000000000000000
000001DF5000000000000000
0000002DD000000000000000
00000001B300000000000000
000000000000000000000000
000000000000000000000000
00000000007D100000000000
000000248EFF600000000000
00002FECEFFFB00000000000
000000006FFFF10000000000
000000008CCFF60000000000
00000000C56FFB0000000000
00000001E12FFF2000000000
00000006B00CFF7000000000
0000000B6007FFC000000000
0000001E1003FFF200000000
0000006B0000EFF700000000
000000BC5100AFFC00000000
000002F7AEB7CFFF30000000
000007C0015BFFFF80000000
00000D7000004EFFD0000000
00003F20000008FFF3000000
0000AB00000002FFF9000000
0001F600000000CFFE000000
002BF2000000007FFF500000
DFFFF4000000003FFFA00000
0248DF900000000DFFF20000
0000047000000009FFF90000
0000000000000007FFFF9200
000000000000016EFFFFFF40
0000000000004EA742000000
ENDCHAR
STARTCHAR Aacute
ENCODING 193
SWIDTH 784 0
DWIDTH 22 0
BBX 23 33 0 -3
BITMAP
00000000000A800000000000
00000000007F600000000000
0000000001ED000000000000
0000000007F4000000000000
000000000C90000000000000
000000001B00000000000000
000000000000000000000000
000000000000000000000000
00000000007D100000000000
000000248EFF600000000000
00002FECEFFFB00000000000
000000006FFFF10000000000
000000008CCFF60000000000
00000000C56FFB0000000000
00000001E12FFF2000000000
00000006B00CFF7000000000
0000000B6007FFC000000000
0000001E1003FFF200000000
0000006B0000EFF700000000
000000BC5100AFFC00000000
000002F7AEB7CFFF30000000
000007C0015BFFFF80000000
00000D7000004EFFD0000000
00003F20000008FFF3000000
0000AB00000002FFF9000000
0001F600000000CFFE000000
002BF2000000007FFF500000
DFFFF4000000003FFFA00000
0248DF900000000DFFF20000
0000047000000009FFF90000
0000000000000007FFFF9200
000000000000016EFFFFFF40
0000000000004EA742000000
ENDCHAR
STARTCHAR Acircumflex
ENCODING 194
SWIDTH 784 0
DWIDTH 22 0
BBX 23 33 0 -3
BITMAP
0000000001C2000000000000
0000000008FC000000000000
000000003E9FA00000000000
00000001D408FA1000000000
0000000A60007FC200000000
00000086000003BD00000000
000005500000000000000000
000000000000000000000000
00000000007D100000000000
000000248EFF600000000000
00002FECEFFFB00000000000
000000006FFFF10000000000
000000008CCFF60000000000
00000000C56FFB0000000000
00000001E12FFF2000000000
00000006B00CFF7000000000
0000000B6007FFC000000000
0000001E1003FFF200000000
0000006B0000EFF700000000
000000BC5100AFFC00000000
000002F7AEB7CFFF30000000
000007C0015BFFFF80000000
00000D7000004EFFD0000000
00003F20000008FFF3000000
0000AB00000002FFF9000000
0001F600000000CFFE000000
002BF2000000007FFF500000
DFFFF4000000003FFFA00000
0248DF900000000DFFF20000
0000047000000009FFF90000
0000000000000007FFFF9200
000000000000016EFFFFFF40
0000000000004EA742000000
ENDCHAR
STARTCHAR Atilde
ENCODING 195
SWIDTH 784 0
DWIDTH 22 0
BBX 23 32 0 -3
BITMAP
0000005EC300000000000000
00000263EF50000000000000
000007104FF8147000000000
0000050006FFFF5000000000
00000000005DE80000000000
000000000000000000000000
000000000000000000000000
00000000007D100000000000
000000248EFF600000000000
00002FECEFFFB00000000000
000000006FFFF10000000000
000000008CCFF60000000000
00000000C56FFB0000000000
00000001E12FFF2000000000
00000006B00CFF7000000000
0000000B6007FFC000000000
0000001E1003FFF200000000
0000006B0000EFF700000000
000000BC5100AFFC00000000
000002F7AEB7CFFF30000000
000007C0015BFFFF80000000
00000D7000004EFFD0000000
00003F20000008FFF3000000
0000AB00000002FFF9000000
0001F600000000CFFE000000
002BF2000000007FFF500000
DFFFF4000000003FFFA00000
0248DF900000000DFFF20000
0000047000000009FFF90000
0000000000000007FFFF9200
000000000000016EFFFFFF40
0000000000004EA742000000
ENDCHAR
STARTCHAR Adieresis
ENCODING 196
SWIDTH 784 0
DWIDTH 22 0
BBX 23 31 0 -3
BITMAP
0000002CE700000000000000
0000009FFF03DD3000000000
0000009FFE07FF7000000000
0000003DE503ED2000000000
000000000000000000000000
000000000000000000000000
00000000007D100000000000
000000248EFF600000000000
00002FECEFFFB00000000000
000000006FFFF10000000000
000000008CCFF60000000000
00000000C56FFB0000000000
00000001E12FFF2000000000
00000006B00CFF7000000000
0000000B6007FFC000000000
0000001E1003FFF200000000
0000006B0000EFF700000000
000000BC5100AFFC00000000
000002F7AEB7CFFF30000000
000007C0015BFFFF80000000
00000D7000004EFFD0000000
00003F20000008FFF3000000
0000AB00000002FFF9000000
0001F600000000CFFE000000
002BF2000000007FFF500000
DFFFF4000000003FFFA00000
0248DF900000000DFFF20000
0000047000000009FFF90000
0000000000000007FFFF9200
000000000000016EFFFFFF40
0000000000004EA742000000
ENDCHAR
STARTCHAR Aring
ENCODING 197
SWIDTH 784 0
DWIDTH 22 0
BBX 23 33 0 -3
BITMAP
000000003CEC500000000000
00000002E514D30000000000
000000099000680000000000
0000000B80006A0000000000
00000009E414D80000000000
00000003FFFFE20000000000
000000005CEC300000000000
000000000000000000000000
00000000007D100000000000
000000248EFF600000000000
00002FECEFFFB00000000000
000000006FFFF10000000000
000000008CCFF60000000000
00000000C56FFB0000000000
00000001E12FFF2000000000
00000006B00CFF7000000000
0000000B6007FFC000000000
0000001E1003FFF200000000
0000006B0000EFF700000000
000000BC5100AFFC00000000
000002F7AEB7CFFF30000000
000007C0015BFFFF80000000
00000D7000004EFFD0000000
00003F20000008FFF3000000
0000AB00000002FFF9000000
0001F600000000CFFE000000
002BF2000000007FFF500000
DFFFF4000000003FFFA00000
0248DF900000000DFFF20000
0000047000000009FFF90000
0000000000000007FFFF9200
000000000000016EFFFFFF40
0000000000004EA742000000
ENDCHAR
STARTCHAR AE
ENCODING 198
SWIDTH 1172 0
DWIDTH 33 0
BBX 33 30 0 -5
BITMAP
0000000000000000000000000012000000
0000000000000000000000015AFA000000
0000000000000000000026AEFFF9000000
000000000000012458ADFC8523E7000000
00000000003EFFFFFFFE20000095000000
000000000000247FFFFC00000073000000
000000000000000F7FFD00000070000000
000000000000003D2FFE00000030000000
00000000000000870FFF10000000000000
00000000000000D20EFF30000530000000
00000000000003A00CFF60000A20000000
00000000000009400BFF80002F10000000
0000000000001C000AFFB026DF20000000
000000000000760009FFFFEDEF30000000
000000000000D10009FFF4000B50000000
000000000006900008FFF2000570000A00
00000000000D40012CFFF4000190000D00
00000000004FEEFEDFFFF7000020002F00
0000000000CB420005FFF9000000005F10
0000000004E1000003FFFC00000000AF30
000000000B60000001FFFF10000004FF50
000000003E00000000FFFF5000006EFF90
00000000B700000000EFFF90016CFFEC80
00000005E100000000EFFFFABFC8520000
0000001D7000000000FFFFFB6100000000
000000AF1000000004FFE7200000000000
00001AFB000000002DE700000000000000
0038EFFC20000006D81000000000000000
BFDCBBBCEF200026100000000000000000
1000000000000000000000000000000000
ENDCHAR
STARTCHAR Ccedilla
ENCODING 199
SWIDTH 742 0
DWIDTH 21 0
BBX 21 36 0 -12
BITMAP
0000000000000000026000
0000000000000000056000
0000000000000000086000
00000000000000000C6000
00000038BDEFECA9CF7000
00002BFF941014AFFF9000
0005EFE300000003DFB000
005FFF30000000001DF100
01EFF9000000000002E500
09FFF20000000000004700
1EFFC00000000000000000
5FFF900000000000000000
8FFF600000000000000000
BFFF500000000000000000
CFFF500000000000000000
DFFF500000000000000000
CFFF600000000000000260
BFFF800000000000000470
9FFFB00000000000000560
5FFFE00000000000000840
1EFFF50000000000000B10
08FFFC0000000000002B00
01EFFF500000000000A400
004EFFE300000000059000
0004EFFE400000005B1000
000019FFFB52014B900000
00000017BDFFEC83000000
00000000000A0000000000
00000000000A0000000000
00000000003FB400000000
00000000006FFF50000000
000000000004EFC0000000
0000000000008FE0000000
0000000062006FC0000000
000000002B22CF50000000
0000000004CFD500000000
ENDCHAR
STARTCHAR Egrave
ENCODING 200
SWIDTH 557 0
DWIDTH 16 0
BBX 16 33 0 -3
BITMAP
007D400000000000
007FE20000000000
000CFC0000000000
0001CF6000000000
00001DE100000000
000001B400000000
0000000000000000
4543334568ABDE10
1AFFFFB532106F00
00DFFF5000000D00
007FFF5000000B00
004FFF5000000800
002FFF6000000000
000EFF7000000000
000CFF7000000000
000AFF8000000000
0008FF8000700000
0007FF9005800000
0005FFFEEF600000
0004FFB13C500000
0002FFC006600000
0001FFC005600000
0000EFD001200000
0000DFE000000000
0000CFF000000000
0000AFF100000000
00009FF200000001
00008FF400000007
00007FF500000038
00007FF6000000B7
0001AFF900002AF5
5FEFFFFFDCCEFFF2
000012234679BB80
ENDCHAR
STARTCHAR Eacute
ENCODING 201
SWIDTH 557 0
DWIDTH 16 0
BBX 16 33 0 -3
BITMAP
0000000004E00000
000000001ED00000
000000008F500000
00000001EB000000
00000005E2000000
0000000840000000
0000000000000000
4543334568ABDE10
1AFFFFB532106F00
00DFFF5000000D00
007FFF5000000B00
004FFF5000000800
002FFF6000000000
000EFF7000000000
000CFF7000000000
000AFF8000000000
0008FF8000700000
0007FF9005800000
0005FFFEEF600000
0004FFB13C500000
0002FFC006600000
0001FFC005600000
0000EFD001200000
0000DFE000000000
0000CFF000000000
0000AFF100000000
00009FF200000001
00008FF400000007
00007FF500000038
00007FF6000000B7
0001AFF900002AF5
5FEFFFFFDCCEFFF2
000012234679BB80
ENDCHAR
STARTCHAR Ecircumflex
ENCODING 202
SWIDTH 557 0
DWIDTH 16 0
BBX 16 34 0 -3
BITMAP
0000000950000000
0000004FE2000000
000001D9ED100000
000009804FD20000
00006A0004EE5000
0004A0000019E300
0028000000000000
0000000000000000
4543334568ABDE10
1AFFFFB532106F00
00DFFF5000000D00
007FFF5000000B00
004FFF5000000800
002FFF6000000000
000EFF7000000000
000CFF7000000000
000AFF8000000000
0008FF8000700000
0007FF9005800000
0005FFFEEF600000
0004FFB13C500000
0002FFC006600000
0001FFC005600000
0000EFD001200000
0000DFE000000000
0000CFF000000000
0000AFF100000000
00009FF200000001
00008FF400000007
00007FF500000038
00007FF6000000B7
0001AFF900002AF5
5FEFFFFFDCCEFFF2
000012234679BB80
ENDCHAR
STARTCHAR Edieresis
ENCODING 203
SWIDTH 557 0
DWIDTH 16 0
BBX 16 31 0 -3
BITMAP
0001BE9000000000
0006FFF31CE50000
0006FFF25FFA0000
0001CE801DE40000
0000000000000000
4543334568ABDE10
1AFFFFB532106F00
00DFFF5000000D00
007FFF5000000B00
004FFF5000000800
002FFF6000000000
000EFF7000000000
000CFF7000000000
000AFF8000000000
0008FF8000700000
0007FF9005800000
0005FFFEEF600000
0004FFB13C500000
0002FFC006600000
0001FFC005600000
0000EFD001200000
0000DFE000000000
0000CFF000000000
0000AFF100000000
00009FF200000001
00008FF400000007
00007FF500000038
00007FF6000000B7
0001AFF900002AF5
5FEFFFFFDCCEFFF2
000012234679BB80
ENDCHAR
STARTCHAR Igrave
ENCODING 204
SWIDTH 438 0
DWIDTH 12 0
BBX 16 36 -2 -5
BITMAP
00006E5000000000
00006FF300000000
00000BFD00000000
000001CF80000000
0000001CE1000000
00000001A5000000
0000000000000000
04A9987778ABDEFA
0035AFFFFFF93100
00000AFFFF900000
000004FFFF200000
000002FFFD000000
000001FFFA000000
000001FFF7000000
000001FFF5000000
000000FFF3000000
000000FFF2000000
000000FFF0000000
000000FFE0000000
000000FFC0000000
000000FFB0000000
000000FF90000000
000000FF80000000
000000FF70000000
000000FF60000000
000000FF50000000
000000FF40000000
000001FF40000000
000001FF30000000
000001FF30000000
000002FF30000000
000003FF40000000
000008FFB2000000
00007FFFFFFA0000
028DB74210000000
3B61000000000000
ENDCHAR
STARTCHAR Iacute
ENCODING 205
SWIDTH 438 0
DWIDTH 12 0
BBX 16 36 -2 -5
BITMAP
00000000000A9000
00000000006F7000
0000000001EE1000
0000000006F50000
000000000BA00000
000000000B100000
0000000000000000
04A9987778ABDEFA
0035AFFFFFF93100
00000AFFFF900000
000004FFFF200000
000002FFFD000000
000001FFFA000000
000001FFF7000000
000001FFF5000000
000000FFF3000000
000000FFF2000000
000000FFF0000000
000000FFE0000000
000000FFC0000000
000000FFB0000000
000000FF90000000
000000FF80000000
000000FF70000000
000000FF60000000
000000FF50000000
000000FF40000000
000001FF40000000
000001FF30000000
000001FF30000000
000002FF30000000
000003FF40000000
000008FFB2000000
00007FFFFFFA0000
028DB74210000000
3B61000000000000
ENDCHAR
STARTCHAR Icircumflex
ENCODING 206
SWIDTH 438 0
DWIDTH 12 0
BBX 16 37 -2 -5
BITMAP
0000000086000000
00000003FF300000
0000000C9EE20000
0000008903EE3000
000005B0003DE600
00003B1000018E40
0001800000000000
0000000000000000
04A9987778ABDEFA
0035AFFFFFF93100
00000AFFFF900000
000004FFFF200000
000002FFFD000000
000001FFFA000000
000001FFF7000000
000001FFF5000000
000000FFF3000000
000000FFF2000000
000000FFF0000000
000000FFE0000000
000000FFC0000000
000000FFB0000000
000000FF90000000
000000FF80000000
000000FF70000000
000000FF60000000
000000FF50000000
000000FF40000000
000001FF40000000
000001FF30000000
000001FF30000000
000002FF30000000
000003FF40000000
000008FFB2000000
00007FFFFFFA0000
028DB74210000000
3B61000000000000
ENDCHAR
STARTCHAR Idieresis
ENCODING 207
SWIDTH 438 0
DWIDTH 12 0
BBX 16 34 -2 -5
BITMAP
00002CE700000000
00009FFF02DE3000
00009FFE07FF8000
00002DE603ED3000
0000000000000000
04A9987778ABDEFA
0035AFFFFFF93100
00000AFFFF900000
000004FFFF200000
000002FFFD000000
000001FFFA000000
000001FFF7000000
000001FFF5000000
000000FFF3000000
000000FFF2000000
000000FFF0000000
000000FFE0000000
000000FFC0000000
000000FFB0000000
000000FF90000000
000000FF80000000
000000FF70000000
000000FF60000000
000000FF50000000
000000FF40000000
000001FF40000000
000001FF30000000
000001FF30000000
000002FF30000000
000003FF40000000
000008FFB2000000
00007FFFFFFA0000
028DB74210000000
3B61000000000000
ENDCHAR
STARTCHAR Eth
ENCODING 208
SWIDTH 730 0
DWIDTH 20 0
BBX 21 23 0 -6
BITMAP
0465568ACEFEDB82000000
069BFFFB1127EFFF910000
0000BFF700001CFFFE3000
00009FF7000001DFFFE200
00008FF70000004FFFFA00
00007FF70000000DFFFF20
00007FF700000008FFFF60
00008FF700000005FFFF90
00008FF700000004FFFFB0
00008FF725100003FFFFB0
39BDFFFFD9200004FFFFA0
36429FF700000005FFFF70
00009FF700000007FFFF30
00009FF80000000AFFFC00
0000AFF80000001EFFF400
0000BFF90000007FFF8000
0000CFFB000002EFF80000
0000EFFD00002DFD400000
0001FFFF5028FC61000000
0006FFFFFC962000000000
002ED85200000000000000
04B4000000000000000000
8600000000000000000000
ENDCHAR
STARTCHAR Ntilde
ENCODING 209
SWIDTH 799 0
DWIDTH 22 0
BBX 23 33 0 -6
BITMAP
0000000000AE910000000000
000000000728FC1000000000
000000000700AFD419200000
0000000005000BFFFE000000
000000000000019ED4000000
000000000000000000000000
000124200000000000025830
DFFFFFF6000000EEEEFFC810
002BFFFF500000028FF60000
0004FFFFF40000000BE00000
0002FAFFFE30000008C00000
0000F28FFFD2000007A00000
0000E20BFFFC100006900000
0000E101EFFFB00006900000
0000D1004FFFF90006800000
0000D10008FFFF7007800000
0000D10000CFFFF608700000
0000C100002EFFFF6B700000
0000C1000005FFFFFF600000
0000C10000009FFFFF600000
0000C20000000CFFFF600000
0000C200000002EFFF500000
0000C2000000004FFF500000
0000C20000000007FF400000
0000C200000000009F300000
0000C200000000000A200000
0000D3000000000000000000
0000E4000000000000000000
0001F5000000000000000000
0006F8000000000000000000
016EFE300000000000000000
9FEEFFE71000000000000000
0000037BA000000000000000
ENDCHAR
STARTCHAR Ograve
ENCODING 210
SWIDTH 747 0
DWIDTH 21 0
BBX 21 29 0 1
BITMAP
00001DA100000000000000
00000EFA00000000000000
000004FF50000000000000
0000005FE1000000000000
00000006F8000000000000
000000005B000000000000
0000000000000000000000
0000000000000000000000
0000016ADEEDB720000000
00006ED62025CFFA200000
0009FC10000008FFE40000
009FE2000000009FFF4000
04FF80000000001EFFE100
0CFF300000000008FFF900
3FFE000000000002FFFF10
8FFB000000000000DFFF50
BFFA000000000000AFFF80
CFF90000000000007FFFA0
DFFA0000000000005FFFB0
CFFB0000000000005FFFA0
AFFE0000000000004FFF80
7FFF2000000000005FFF50
3FFF6000000000007FFF10
0CFFC00000000000AFFA00
04FFF40000000001EFF200
009FFD1000000008FF6000
0009FFB10000005FF70000
00006DFE720139FD400000
00000059CEFEDA50000000
ENDCHAR
STARTCHAR Oacute
ENCODING 211
SWIDTH 747 0
DWIDTH 21 0
BBX 21 29 0 1
BITMAP
00000000000A8000000000
00000000007F6000000000
0000000001ED0000000000
0000000007F40000000000
000000000C900000000000
000000001B000000000000
0000000000000000000000
0000000000000000000000
0000016ADEEDB720000000
00006ED62025CFFA200000
0009FC10000008FFE40000
009FE2000000009FFF4000
04FF80000000001EFFE100
0CFF300000000008FFF900
3FFE000000000002FFFF10
8FFB000000000000DFFF50
BFFA000000000000AFFF80
CFF90000000000007FFFA0
DFFA0000000000005FFFB0
CFFB0000000000005FFFA0
AFFE0000000000004FFF80
7FFF2000000000005FFF50
3FFF6000000000007FFF10
0CFFC00000000000AFFA00
04FFF40000000001EFF200
009FFD1000000008FF6000
0009FFB10000005FF70000
00006DFE720139FD400000
00000059CEFEDA50000000
ENDCHAR
STARTCHAR Ocircumflex
ENCODING 212
SWIDTH 747 0
DWIDTH 21 0
BBX 21 29 0 1
BITMAP
000000000B300000000000
000000007FD10000000000
00000002E9FB0000000000
0000000C506FB100000000
000000970006FD30000000
0000078000002AE0000000
0000460000000000000000
0000000000000000000000
0000016ADEEDB720000000
00006ED62025CFFA200000
0009FC10000008FFE40000
009FE2000000009FFF4000
04FF80000000001EFFE100
0CFF300000000008FFF900
3FFE000000000002FFFF10
8FFB000000000000DFFF50
BFFA000000000000AFFF80
CFF90000000000007FFFA0
DFFA0000000000005FFFB0
CFFB0000000000005FFFA0
AFFE0000000000004FFF80
7FFF2000000000005FFF50
3FFF6000000000007FFF10
0CFFC00000000000AFFA00
04FFF40000000001EFF200
009FFD1000000008FF6000
0009FFB10000005FF70000
00006DFE720139FD400000
00000059CEFEDA50000000
ENDCHAR
STARTCHAR Otilde
ENCODING 213
SWIDTH 747 0
DWIDTH 21 0
BBX 21 27 0 1
BITMAP
0000001BE8000000000000
000000729FC10000000000
000000700BFD41A1000000
0000024001CFFFD0000000
00000000001AEC30000000
0000000000000000000000
0000016ADEEDB720000000
00006ED62025CFFA200000
0009FC10000008FFE40000
009FE2000000009FFF4000
04FF80000000001EFFE100
0CFF300000000008FFF900
3FFE000000000002FFFF10
8FFB000000000000DFFF50
BFFA000000000000AFFF80
CFF90000000000007FFFA0
DFFA0000000000005FFFB0
CFFB0000000000005FFFA0
AFFE0000000000004FFF80
7FFF2000000000005FFF50
3FFF6000000000007FFF10
0CFFC00000000000AFFA00
04FFF40000000001EFF200
009FFD1000000008FF6000
0009FFB10000005FF70000
00006DFE720139FD400000
00000059CEFEDA50000000
ENDCHAR
STARTCHAR Odieresis
ENCODING 214
SWIDTH 747 0
DWIDTH 21 0
BBX 21 27 0 1
BITMAP
0000005DE4000000000000
000000DFFB05EC10000000
000000DFFA0BFF30000000
0000005ED306EB00000000
0000000000000000000000
0000000000000000000000
0000016ADEEDB720000000
00006ED62025CFFA200000
0009FC10000008FFE40000
009FE2000000009FFF4000
04FF80000000001EFFE100
0CFF300000000008FFF900
3FFE000000000002FFFF10
8FFB000000000000DFFF50
BFFA000000000000AFFF80
CFF90000000000007FFFA0
DFFA0000000000005FFFB0
CFFB0000000000005FFFA0
AFFE0000000000004FFF80
7FFF2000000000005FFF50
3FFF6000000000007FFF10
0CFFC00000000000AFFA00
04FFF40000000001EFF200
009FFD1000000008FF6000
0009FFB10000005FF70000
00006DFE720139FD400000
00000059CEFEDA50000000
ENDCHAR
STARTCHAR multiply
ENCODING 215
SWIDTH 541 0
DWIDTH 15 0
BBX 13 17 1 0
BITMAP
00000000000150
00000000001C70
0000000000BB00
0000000007D100
03C200003E2000
006E3001D40000
0007E50B700000
00007FDA000000
00000BFB100000
00003F59D30000
0000C7005E6000
0009B00002A200
005E1000000000
02E50000000000
0CB00000000000
6E200000000000
43000000000000
ENDCHAR
STARTCHAR Oslash
ENCODING 216
SWIDTH 747 0
DWIDTH 21 0
BBX 21 28 0 -2
BITMAP
0000000000000000000100
0000000000000000001C00
000000000000000000B600
000000000000000006C000
0000016ADEFEB7202E3000
00006ED62025CFFAC80000
0009FC10000008FFF40000
009FE200000000AFFE4000
04FF8000000001CFFFE100
0CFF3000000009C8FFF900
3FFE000000005E32FFFE10
8FFB00000002E600DFFF50
BFFA0000000CA0009FFF80
CFF90000008D10007FFFA0
DFFA000004F300005FFFB0
BFFB00002E7000004FFFA0
AFFD0000BB0000004FFF80
7FFF2007D10000005FFF50
3FFF603E400000007FFF10
0CFFB1D700000000AFFA00
04FFFBB000000001EFF200
009FFF2000000008FF6000
0009FFC10000005FF70000
0009CEFE721139FD400000
004E115ADEFEDA50000000
01D5000000000000000000
0780000000000000000000
0200000000000000000000
ENDCHAR
STARTCHAR Ugrave
ENCODING 217
SWIDTH 690 0
DWIDTH 19 0
BBX 21 30 0 1
BITMAP
00000005E5000000000000
00000005FF400000000000
00000000AFD10000000000
000000000BF80000000000
0000000001BF2000000000
0000000000096000000000
0000000000000000000000
0000000000000000000000
0000000000000000000000
00000000027A0000000000
00000016BFB30000000000
02479CFFF6000000000000
DFFFFFFF80000000000010
029FFFFF101DEDBAACB860
000DFFFC000025CFFB0000
000AFFF90000000CF50000
0009FFF700000005F30000
0008FFF600000002F20000
0007FFF600000000F10000
0007FFF600000000E10000
0006FFF700000000E10000
0005FFF800000000D00000
0003FFFA00000000D00000
0001FFFD00000002C00000
0000CFFF20000005900000
00006FFF7000000B400000
00000DFFE200006E000000
000004FFFD4027F6000000
0000005EFFFFFF90000000
000000028DFEC500000000
ENDCHAR
STARTCHAR Uacute
ENCODING 218
SWIDTH 690 0
DWIDTH 19 0
BBX 21 26 0 1
BITMAP
00000000000000006D0000
0000000000000002FB0000
000000000000000AF30000
000000000000002FA00000
000000000000007D100000
00000000027A00A3000000
00000016BFB30000000000
02479CFFF6000000000000
DFFFFFFF80000000000010
029FFFFF101DEDBAACB860
000DFFFC000025CFFB0000
000AFFF90000000CF50000
0009FFF700000005F30000
0008FFF600000002F20000
0007FFF600000000F10000
0007FFF600000000E10000
0006FFF700000000E10000
0005FFF800000000D00000
0003FFFA00000000D00000
0001FFFD00000002C00000
0000CFFF20000005900000
00006FFF7000000B400000
00000DFFE200006E000000
000004FFFD4027F6000000
0000005EFFFFFF90000000
000000028DFEC500000000
ENDCHAR
STARTCHAR Ucircumflex
ENCODING 219
SWIDTH 690 0
DWIDTH 19 0
BBX 21 28 0 1
BITMAP
00000000000B3000000000
00000000006FD100000000
0000000002E9FB10000000
000000000B606FC1000000
00000000880005ED300000
000000068000002AE10000
0000004700000000000000
00000000027A0000000000
00000016BFB30000000000
02479CFFF6000000000000
DFFFFFFF80000000000010
029FFFFF101DEDBAACB860
000DFFFC000025CFFB0000
000AFFF90000000CF50000
0009FFF700000005F30000
0008FFF600000002F20000
0007FFF600000000F10000
0007FFF600000000E10000
0006FFF700000000E10000
0005FFF800000000D00000
0003FFFA00000000D00000
0001FFFD00000002C00000
0000CFFF20000005900000
00006FFF7000000B400000
00000DFFE200006E000000
000004FFFD4027F6000000
0000005EFFFFFF90000000
000000028DFEC500000000
ENDCHAR
STARTCHAR Udieresis
ENCODING 220
SWIDTH 690 0
DWIDTH 19 0
BBX 21 27 0 1
BITMAP
00000000AEB00000000000
00000005FFF40BE6000000
00000005FFF33FFC000000
00000000BE901CE5000000
0000000000000000000000
0000000000000000000000
00000000027A0000000000
00000016BFB30000000000
02479CFFF6000000000000
DFFFFFFF80000000000010
029FFFFF101DEDBAACB860
000DFFFC000025CFFB0000
000AFFF90000000CF50000
0009FFF700000005F30000
0008FFF600000002F20000
0007FFF600000000F10000
0007FFF600000000E10000
0006FFF700000000E10000
0005FFF800000000D00000
0003FFFA00000000D00000
0001FFFD00000002C00000
0000CFFF20000005900000
00006FFF7000000B400000
00000DFFE200006E000000
000004FFFD4027F6000000
0000005EFFFFFF90000000
000000028DFEC500000000
ENDCHAR
STARTCHAR Yacute
ENCODING 221
SWIDTH 796 0
DWIDTH 22 0
BBX 25 34 0 -4
BITMAP
00000000000000006C00000000
0000000000000003FA00000000
000000000000000BF300000000
000000000000002F9000000000
000000000000008D1000000000
00000000160000A20000000000
0001358CD60000000000000000
8FFFFFF8000000000CC7421000
027EFFF600000000017FFFFFA0
0002DFFE10000000003F720000
00002EFFB000000000B5000000
000004FFF90000000780000000
0000006FFF7000004B00000000
00000009FFF60002D100000000
00000000CFFF702D4000000000
000000002EFFFBD80000000000
0000000007FFFFD10000000000
0000000000CFFF600000000000
00000000004FFF200000000000
00000000000EFF100000000000
00000000000CFF100000000000
00000000000BFF100000000000
00000000000BFF100000000000
00000000000CFF200000000000
00000000000CFF300000000000
00000000000EFF300000000000
00000000000FFF400000000000
00000000002FFF500000000000
00000000004FFF700000000000
00000000008FFF900000000000
0000000026FFFFC00000000000
0000004EFFFFFFF70000000000
00000000000147AEB000000000
00000000000000002000000000
ENDCHAR
STARTCHAR Thorn
ENCODING 222
SWIDTH 479 0
DWIDTH 13 0
BBX 14 29 0 -3
BITMAP
01100000000000
0EFFFFFF800000
027FFF81000000
000AFF10000000
0008FD00000000
0008FC00000000
0008FE41000000
0008FFFFFC9300
0008FE304EFF80
0009F80004FFF6
0009F60000DFFC
000AF60000AFFE
000AF600009FFE
000AF70000BFFC
000BF70002FFF6
000BFA103DFFA0
000CFCBDFEB500
000CF900000000
000DF900000000
000EF900000000
000EF900000000
000FF900000000
001FF900000000
002FF900000000
003FFA00000000
006FFC00000000
02DFFF40000000
1DFFFFF9100000
14210146200000
ENDCHAR
STARTCHAR germandbls
ENCODING 223
SWIDTH 591 0
DWIDTH 17 0
BBX 18 30 -1 -3
BITMAP
0005CEEB4000000000
006D303DF700000000
01E30002FF20000000
07D00000CF80000000
0AB000009FB0000000
0CB000008FB0000000
0DB000009FA0000000
0CD00000BF60000000
0BF00001FD00000000
0BF30007F400000000
09F5002E5000000000
07F802A30000000000
06FC3EEFEDA6100000
04FF00149FFFE70000
01FF400002CFFFB000
00EF8000001CFFF900
00BFB0000002EFFF30
009FF10000005FFF90
006FF50000000CFFD0
003FF900000005FFF1
000FFD00000000EFF2
000DFF30000000AFF2
000AFF700000007FF1
0007FFC00000006FD0
0005FFF13DB1005F80
0006FFF68FF7008E20
000AFFFB6FFE32D400
007FD84107DFD92000
08D500000000000000
770000000000000000
ENDCHAR
STARTCHAR agrave
ENCODING 224
SWIDTH 527 0
DWIDTH 15 0
BBX 16 27 0 -3
BITMAP
1DA0000000000000
1EF9000000000000
05FF400000000000
007FD00000000000
0007F60000000000
00006A0000000000
0000000000000000
0003BEEB40000000
003D414EF6000000
00C60005FF200000
01F60001FF900000
02FE5000DFD00000
02FFF700BFF20000
00DFFB009FF50000
003CE5007FF70000
000000006FFA0000
0017CEFEDFFC0000
02DF92016FFF0000
0DF900001FFF2000
5FF300000FFF5000
8FF100000DFF7000
8FF400002EFFA000
5FFD4027DAFFC005
0CFFFFFE35FFF10A
019EFD8101FFF83A
00000000009FFFF6
000000000008EE90
ENDCHAR
STARTCHAR aacute
ENCODING 225
SWIDTH 527 0
DWIDTH 15 0
BBX 16 27 0 -3
BITMAP
000000006D000000
00000002FB000000
0000000AF4000000
0000002FA0000000
0000007D10000000
0000009300000000
0000000000000000
0003BEEB40000000
003D414EF6000000
00C60005FF200000
01F60001FF900000
02FE5000DFD00000
02FFF700BFF20000
00DFFB009FF50000
003CE5007FF70000
000000006FFA0000
0017CEFEDFFC0000
02DF92016FFF0000
0DF900001FFF2000
5FF300000FFF5000
8FF100000DFF7000
8FF400002EFFA000
5FFD4027DAFFC005
0CFFFFFE35FFF10A
019EFD8101FFF83A
00000000009FFFF6
000000000008EE90
ENDCHAR
STARTCHAR acircumflex
ENCODING 226
SWIDTH 527 0
DWIDTH 15 0
BBX 16 27 0 -3
BITMAP
000000B300000000
000006FD10000000
00002E9FB1000000
0000C606FC100000
000970005FD30000
0068000002AE1000
0460000000000000
0003BEEB40000000
003D414EF6000000
00C60005FF200000
01F60001FF900000
02FE5000DFD00000
02FFF700BFF20000
00DFFB009FF50000
003CE5007FF70000
000000006FFA0000
0017CEFEDFFC0000
02DF92016FFF0000
0DF900001FFF2000
5FF300000FFF5000
8FF100000DFF7000
8FF400002EFFA000
5FFD4027DAFFC005
0CFFFFFE35FFF10A
019EFD8101FFF83A
00000000009FFFF6
000000000008EE90
ENDCHAR
STARTCHAR atilde
ENCODING 227
SWIDTH 527 0
DWIDTH 15 0
BBX 16 26 0 -3
BITMAP
0001CE8000000000
00081AFB10000000
001600CFC31A0000
0032001DFFFC0000
00000001AEC20000
0000000000000000
0003BEEB40000000
003D414EF6000000
00C60005FF200000
01F60001FF900000
02FE5000DFD00000
02FFF700BFF20000
00DFFB009FF50000
003CE5007FF70000
000000006FFA0000
0017CEFEDFFC0000
02DF92016FFF0000
0DF900001FFF2000
5FF300000FFF5000
8FF100000DFF7000
8FF400002EFFA000
5FFD4027DAFFC005
0CFFFFFE35FFF10A
019EFD8101FFF83A
00000000009FFFF6
000000000008EE90
ENDCHAR
STARTCHAR adieresis
ENCODING 228
SWIDTH 527 0
DWIDTH 15 0
BBX 16 24 0 -3
BITMAP
000AE62DC0000000
003FFB6FF2000000
001CE53EB0000000
0000000000000000
0003BEEB40000000
003D414EF6000000
00C60005FF200000
01F60001FF900000
02FE5000DFD00000
02FFF700BFF20000
00DFFB009FF50000
003CE5007FF70000
000000006FFA0000
0017CEFEDFFC0000
02DF92016FFF0000
0DF900001FFF2000
5FF300000FFF5000
8FF100000DFF7000
8FF400002EFFA000
5FFD4027DAFFC005
0CFFFFFE35FFF10A
019EFD8101FFF83A
00000000009FFFF6
000000000008EE90
ENDCHAR
STARTCHAR aring
ENCODING 229
SWIDTH 527 0
DWIDTH 15 0
BBX 16 28 0 -3
BITMAP
00001AED80000000
0000C812B8000000
0004D0002D000000
0006D0002F000000
0004F812BC000000
0001DFFFF6000000
00002BEE60000000
0000000000000000
0003BEEB40000000
003D414EF6000000
00C60005FF200000
01F60001FF900000
02FE5000DFD00000
02FFF700BFF20000
00DFFB009FF50000
003CE5007FF70000
000000006FFA0000
0017CEFEDFFC0000
02DF92016FFF0000
0DF900001FFF2000
5FF300000FFF5000
8FF100000DFF7000
8FF400002EFFA000
5FFD4027DAFFC005
0CFFFFFE35FFF10A
019EFD8101FFF83A
00000000009FFFF6
000000000008EE90
ENDCHAR
STARTCHAR ae
ENCODING 230
SWIDTH 700 0
DWIDTH 20 0
BBX 20 19 0 -2
BITMAP
0000000000018DEC6000
000000000038215EF900
005DFB2002900007FF30
04E319E10B100003FF60
0BB000D959000002FF60
0EF4009EC5000005FF40
0EFD007FF200000BFD00
06EA009FF100008FF500
00006DFFF1025CFE6000
003CA27FFDEFEC720000
02EA002FF30000000000
0BF1000FF70000000090
3FB0000FFD00000000C1
7F90001FFF70000000E2
8FB0006FFFF5000005F1
8FF615E7FFFF93116EC0
4FFFFFF27FFFFFFFFF50
0BFFFF8009FFFFFFF900
01AEE700006BDFEB5000
ENDCHAR
STARTCHAR ccedilla
ENCODING 231
SWIDTH 437 0
DWIDTH 12 0
BBX 12 23 0 -6
BITMAP
00004AEFD810
000A714FFFB0
00A9000DFFF2
06F2000BFFF1
0DD00003DE70
3FB000000000
7FB000000000
8FB0000002A0
8FE000000096
7FF20000004B
3FF90000005C
0DFF400000A9
05FFF82029F4
007FFFFFFF70
0003AEFEA300
000000A00000
000002D61000
000006FFD200
0000017FFB00
00000008FE00
00051006FC00
0003B21CF600
00006CFD6000
ENDCHAR
STARTCHAR egrave
ENCODING 232
SWIDTH 434 0
DWIDTH 12 0
BBX 12 23 0 1
BITMAP
02E900000000
01EF80000000
006FF3000000
0007FC000000
00008F600000
000006A00000
000000000000
000000000000
00004ADED810
0019FA21AFC1
00AFC0001EF7
06FF50000CFA
0DFF00000CFA
3FFC00001FF8
6FFB00009FE1
8FFB1029FE40
8FFEDFFC8200
6FFD00000083
3FFF10000059
0CFF6000005A
04FFD1000087
005FFD5117C1
00028DEEC810
ENDCHAR
STARTCHAR eacute
ENCODING 233
SWIDTH 434 0
DWIDTH 12 0
BBX 12 22 0 1
BITMAP
000000007B00
00000004F900
0000000CF200
0000004F8000
0000009C0000
000000B20000
000000000000
00004ADED810
0019FA21AFC1
00AFC0001EF7
06FF50000CFA
0DFF00000CFA
3FFC00001FF8
6FFB00009FE1
8FFB1029FE40
8FFEDFFC8200
6FFD00000083
3FFF10000059
0CFF6000005A
04FFD1000087
005FFD5117C1
00028DEEC810
ENDCHAR
STARTCHAR ecircumflex
ENCODING 234
SWIDTH 434 0
DWIDTH 12 0
BBX 12 24 0 1
BITMAP
000001C10000
000009FB0000
00004DAF9000
0001D309FA00
000B50008FC2
0095000004BC
064000000000
000000000000
000000000000
00004ADED810
0019FA21AFC1
00AFC0001EF7
06FF50000CFA
0DFF00000CFA
3FFC00001FF8
6FFB00009FE1
8FFB1029FE40
8FFEDFFC8200
6FFD00000083
3FFF10000059
0CFF6000005A
04FFD1000087
005FFD5117C1
00028DEEC810
ENDCHAR
STARTCHAR edieresis
ENCODING 235
SWIDTH 434 0
DWIDTH 12 0
BBX 12 20 0 1
BITMAP
0001CE44E900
0006FF89FE00
0002DD25E800
000000000000
000000000000
00004ADED810
0019FA21AFC1
00AFC0001EF7
06FF50000CFA
0DFF00000CFA
3FFC00001FF8
6FFB00009FE1
8FFB1029FE40
8FFEDFFC8200
6FFD00000083
3FFF10000059
0CFF6000005A
04FFD1000087
005FFD5117C1
00028DEEC810
ENDCHAR
STARTCHAR igrave
ENCODING 236
SWIDTH 301 0
DWIDTH 8 0
BBX 9 24 -1 2
BITMAP
DB10000000
DFA0000000
4FF6000000
05FE100000
005F800000
0004B00000
0000000000
0000000000
0000000000
0000007500
00137DF400
07FFFFF300
001AFFF100
0004FFE000
0003FFC000
0003FFB000
0003FFA000
0003FF8000
0003FF7000
0003FF6000
0004FF5000
0005FF5000
001BFFC300
05FDCDEFD0
ENDCHAR
STARTCHAR iacute
ENCODING 237
SWIDTH 301 0
DWIDTH 8 0
BBX 8 23 0 2
BITMAP
000006D0
00002FB0
0000AF40
0002FA00
0007D100
00093000
00000000
00000000
00000750
0137DF40
7FFFFF30
01AFFF10
004FFE00
003FFC00
003FFB00
003FFA00
003FF800
003FF700
003FF600
004FF500
005FF500
01BFFC30
5FDCDEFD
ENDCHAR
STARTCHAR icircumflex
ENCODING 238
SWIDTH 301 0
DWIDTH 8 0
BBX 11 23 -1 2
BITMAP
00005A000000
0001DF600000
0009BCF40000
005C11DF5000
02C2001CF800
1B2000006D70
820000000000
000000000000
000000750000
00137DF40000
07FFFFF30000
001AFFF10000
0004FFE00000
0003FFC00000
0003FFB00000
0003FFA00000
0003FF800000
0003FF700000
0003FF600000
0004FF500000
0005FF500000
001BFFC30000
05FDCDEFD000
ENDCHAR
STARTCHAR idieresis
ENCODING 239
SWIDTH 301 0
DWIDTH 8 0
BBX 8 20 0 2
BITMAP
04EC18E5
0BFF3EF9
06EA09E4
00000000
00000000
00000750
0137DF40
7FFFFF30
01AFFF10
004FFE00
003FFC00
003FFB00
003FFA00
003FF800
003FF700
003FF600
004FF500
005FF500
01BFFC30
5FDCDEFD
ENDCHAR
STARTCHAR eth
ENCODING 240
SWIDTH 476 0
DWIDTH 13 0
BBX 16 26 -3 -3
BITMAP
0000000000021000
0000000000090000
0000000000730000
00017CEEC8900000
005D82026FE50000
06C2000083CF6000
2A100003701EF300
000000090006FC00
000000240001EF40
000000000000AFA0
0000000000007FE0
0000000000005FF3
0000000000004FF6
00000018DFD97FF9
000001CF9129FFFB
00000AFC0000AFFC
00002FF700002FFD
00006FF400000CFD
00009FF4000008FC
00009FF5000006FB
00007FF7000005F9
00004FFB000005F6
00000DFF200007F1
000004FFB0000C90
0000006FFA218D10
000000029DFE9100
ENDCHAR
STARTCHAR ntilde
ENCODING 241
SWIDTH 584 0
DWIDTH 16 0
BBX 17 24 0 -1
BITMAP
0000000BE910000000
000000729FC1000000
000000700AFD419100
0000014001CFFFD000
000000000019EC4000
000080000000000000
0006F2000000000000
005FF50019EEB30000
29FFF701CFFFFE3000
526FF90A603EFFA000
000FFB370005FFE000
000CFD910000FFF100
0008FFA00000CFF200
0005FF900000BFF100
0002FF700000BFE000
0000EF700000BFD000
0000BF700000CFB000
00009F700000DF9000
00007F900001FF7000
00006FC00018FF6000
00008FF30DFFFF7000
00AEFFFE50249EC100
002210243000018C10
000000000000000210
ENDCHAR
STARTCHAR ograve
ENCODING 242
SWIDTH 400 0
DWIDTH 11 0
BBX 19 22 0 5
BITMAP
0000000000000008EC10
000000000000000EFF90
000000000000000AFFB0
0CB10000000000008FA0
0CFB0000000000000D70
03FF7000000000000D20
004FE100000000002A00
0005F900000000009200
00004C00000000047000
00000000000000490000
00000000000018900000
000000000149B5000000
0019E5EEED9400000000
03EF905FE40000000000
0DFD000CFE2000000000
5FF70007FF9000000000
8FF30005FFD000000000
9FF20006FFD000000000
7FF20008FF9000000000
2FF6000DFF3000000000
06FE318FF60000000000
004BEFD9300000000000
ENDCHAR
STARTCHAR oacute
ENCODING 243
SWIDTH 400 0
DWIDTH 11 0
BBX 19 22 0 5
BITMAP
0000000000000008EC10
000000000000000EFF90
000000000000000AFFB0
00000000000000008FA0
000000008B0000000D70
00000004F90000000D20
0000000CF20000002A00
0000004F700000009200
0000009C000000047000
000000B2000000490000
00000000000018900000
000000000149B5000000
0019E5EEED9400000000
03EF905FE40000000000
0DFD000CFE2000000000
5FF70007FF9000000000
8FF30005FFD000000000
9FF20006FFD000000000
7FF20008FF9000000000
2FF6000DFF3000000000
06FE318FF60000000000
004BEFD9300000000000
ENDCHAR
STARTCHAR ocircumflex
ENCODING 244
SWIDTH 400 0
DWIDTH 11 0
BBX 19 22 0 5
BITMAP
0000000000000008EC10
000000000000000EFF90
000000000000000AFFB0
000005A0000000008FA0
00001DF6000000000D70
00009BCF500000000D20
0004C11CF50000002A00
002C2001BF8000009200
01B2000006D700047000
08200000000000490000
00000000000018900000
000000000149B5000000
0019E5EEED9400000000
03EF905FE40000000000
0DFD000CFE2000000000
5FF70007FF9000000000
8FF30005FFD000000000
9FF20006FFD000000000
7FF20008FF9000000000
2FF6000DFF3000000000
06FE318FF60000000000
004BEFD9300000000000
ENDCHAR
STARTCHAR otilde
ENCODING 245
SWIDTH 400 0
DWIDTH 11 0
BBX 19 22 0 5
BITMAP
0000000000000008EC10
000000000000000EFF90
000000000000000AFFB0
00000000000000008FA0
00000000000000000D70
00000000000000000D20
0002DD60000000002A00
00082CF9000000009200
003401DFB22900047000
0051002EFFFA00490000
00000002BEB118900000
000000000149B5000000
0019E5EEED9400000000
03EF905FE40000000000
0DFD000CFE2000000000
5FF70007FF9000000000
8FF30005FFD000000000
9FF20006FFD000000000
7FF20008FF9000000000
2FF6000DFF3000000000
06FE318FF60000000000
004BEFD9300000000000
ENDCHAR
STARTCHAR odieresis
ENCODING 246
SWIDTH 400 0
DWIDTH 11 0
BBX 19 22 0 5
BITMAP
0000000000000008EC10
000000000000000EFF90
000000000000000AFFB0
00000000000000008FA0
00000000000000000D70
00000000000000000D20
00000000000000002A00
0005EC19E40000009200
000CFF3FF80000047000
0007EA0AE30000490000
00000000000018900000
000000000149B5000000
0019E5EEED9400000000
03EF905FE40000000000
0DFD000CFE2000000000
5FF70007FF9000000000
8FF30005FFD000000000
9FF20006FFD000000000
7FF20008FF9000000000
2FF6000DFF3000000000
06FE318FF60000000000
004BEFD9300000000000
ENDCHAR
STARTCHAR divide
ENCODING 247
SWIDTH 592 0
DWIDTH 17 0
BBX 15 10 1 3
BITMAP
000005EC10000000
00000CFF30000000
000006EB00000000
0000000000000000
0000000001122100
6FFFEDDDDDDDDC20
0000000000000000
000005ED20000000
00000BFF50000000
000006EB10000000
ENDCHAR
STARTCHAR oslash
ENCODING 248
SWIDTH 396 0
DWIDTH 11 0
BBX 11 18 0 0
BITMAP
000000210000
000000A30000
000000E00000
0029DFFB4000
04EE46CFF600
1EF50A49FE20
6FE00D05FF70
9FC04A04FF90
9FC09605FF80
7FE0E107FF50
2FF8C00CFD00
07FF819FE300
004EFFD81000
001F10000000
005C00000000
009800000000
00C300000000
001000000000
ENDCHAR
STARTCHAR ugrave
ENCODING 249
SWIDTH 744 0
DWIDTH 21 0
BBX 21 21 0 1
BITMAP
000000DA10000000000000
000000DFA0000000000000
0000004FF5000000000000
00000005FE100000000000
000000006F800000000000
0000000004B00000000000
00001B000000002C100000
0002CF10000149FF300000
027EFF3000BEEFFF400000
6DADFF60000008FF500000
0004FF80000003FF600000
0000FFB0000001FF800000
0000DFE0000002FF900000
0000BFF2000003FFB00000
00009FF6000005EFC00000
00007FFB0000099FE00000
00003FFF30001D5FF50000
00000EFFD413C92FFFCDB0
000008FFFFFFF309864200
000001CFFFFF7000000000
00000019DFC50000000000
ENDCHAR
STARTCHAR uacute
ENCODING 250
SWIDTH 744 0
DWIDTH 21 0
BBX 21 21 0 1
BITMAP
00000000001C6000000000
00000000009F4000000000
0000000002FB0000000000
0000000009F30000000000
000000000E700000000000
0000000039000000000000
00001B000000002C100000
0002CF10000149FF300000
027EFF3000BEEFFF400000
6DADFF60000008FF500000
0004FF80000003FF600000
0000FFB0000001FF800000
0000DFE0000002FF900000
0000BFF2000003FFB00000
00009FF6000005EFC00000
00007FFB0000099FE00000
00003FFF30001D5FF50000
00000EFFD413C92FFFCDB0
000008FFFFFFF309864200
000001CFFFFF7000000000
00000019DFC50000000000
ENDCHAR
STARTCHAR ucircumflex
ENCODING 251
SWIDTH 744 0
DWIDTH 21 0
BBX 21 22 0 1
BITMAP
0000000095000000000000
00000004FE200000000000
0000001D9ED10000000000
0000009804FD2000000000
000006A0004EE500000000
00004A0000019E30000000
0002800000000000000000
00001B000000002C100000
0002CF10000149FF300000
027EFF3000BEEFFF400000
6DADFF60000008FF500000
0004FF80000003FF600000
0000FFB0000001FF800000
0000DFE0000002FF900000
0000BFF2000003FFB00000
00009FF6000005EFC00000
00007FFB0000099FE00000
00003FFF30001D5FF50000
00000EFFD413C92FFFCDB0
000008FFFFFFF309864200
000001CFFFFF7000000000
00000019DFC50000000000
ENDCHAR
STARTCHAR udieresis
ENCODING 252
SWIDTH 744 0
DWIDTH 21 0
BBX 21 19 0 1
BITMAP
0000000AE72DC100000000
0000002FFC6FF300000000
0000000CE52EB000000000
0000000000000000000000
00001B000000002C100000
0002CF10000149FF300000
027EFF3000BEEFFF400000
6DADFF60000008FF500000
0004FF80000003FF600000
0000FFB0000001FF800000
0000DFE0000002FF900000
0000BFF2000003FFB00000
00009FF6000005EFC00000
00007FFB0000099FE00000
00003FFF30001D5FF50000
00000EFFD413C92FFFCDB0
000008FFFFFFF309864200
000001CFFFFF7000000000
00000019DFC50000000000
ENDCHAR
STARTCHAR yacute
ENCODING 253
SWIDTH 659 0
DWIDTH 18 0
BBX 19 33 0 -13
BITMAP
0000000000006D000000
000000000002FB000000
00000000000AF3000000
00000000002FA0000000
00000000007D10000000
0000004C40A300000000
00004BE6000000014710
037DFF30009EDDEFF900
7EFFFC0000039FFFD000
00BFFB0000000EFFA000
008FFC0000000BFF9000
005FFD0000000AFF8000
002FFF0000000BFF7000
000EFF3000000CFF6000
000AFF7000000FFF4000
0005FFD000004FFF3000
0001EFF60000BBFF1000
00006FFF7119A8FE0000
00000AFFFFFD19FC0000
0000007DFD9109F90000
0000000000000BF60000
0000000000000CF30000
0000000000000EE00000
0000000000001FB00000
0000000000003F600000
00004CEB20007F200000
0002FFFFA000BC000000
00093AFFC002F6000000
000A02DE5008D0000000
000B0000002F50000000
000A400001C900000000
0002D5115D9000000000
00003BEEB40000000000
ENDCHAR
STARTCHAR thorn
ENCODING 254
SWIDTH 514 0
DWIDTH 14 0
BBX 16 40 -2 -17
BITMAP
000027D200000000
026CFF6000000000
4EDFFC0000000000
001EFA0000000000
000BFB0000000000
0009FC0000000000
0008FD0000000000
0006FD0000000000
0005FE0000000000
0004FF19DFD81000
0003FFD514DFE400
0002FF80002FFE20
0001FF600009FFB0
0000FF600005FFF2
0000FF600002FFF7
0000EF700000FFFA
0000EF700000EFFC
0000DF900000EFFC
0000DFA00001FFFC
0000DFD00004FFFA
0000DFF2000AFFF6
0000CFFC218FFFE1
0000CFFBFFFFFF50
0000CFF17CFEA300
0000CFF100000000
0000CFF200000000
0000CFF300000000
0000CFF400000000
0000CFF500000000
0000CFF500000000
0000CFF600000000
0000CFF700000000
0000CFF800000000
0000CFF900000000
0000DFFA00000000
0000EFFB00000000
0001FFFD00000000
0018FFFF10000000
05FEEFFFC6200000
000000247BE60000
ENDCHAR
STARTCHAR ydieresis
ENCODING 255
SWIDTH 659 0
DWIDTH 18 0
BBX 19 33 0 -13
BITMAP
000000009E71DC100000
00000002FFC5FF300000
00000000CE52DB000000
00000000000000000000
00000000000000000000
0000004C400000000000
00004BE6000000014710
037DFF30009EDDEFF900
7EFFFC0000039FFFD000
00BFFB0000000EFFA000
008FFC0000000BFF9000
005FFD0000000AFF8000
002FFF0000000BFF7000
000EFF3000000CFF6000
000AFF7000000FFF4000
0005FFD000004FFF3000
0001EFF60000BBFF1000
00006FFF7119A8FE0000
00000AFFFFFD19FC0000
0000007DFD9109F90000
0000000000000BF60000
0000000000000CF30000
0000000000000EE00000
0000000000001FB00000
0000000000003F600000
00004CEB20007F200000
0002FFFFA000BC000000
00093AFFC002F6000000
000A02DE5008D0000000
000B0000002F50000000
000A400001C900000000
0002D5115D9000000000
00003BEEB40000000000
ENDCHAR
STARTCHAR dotlessi
ENCODING 305
SWIDTH 301 0
DWIDTH 8 0
BBX 8 15 0 2
BITMAP
00000750
0137DF40
7FFFFF30
01AFFF10
004FFE00
003FFC00
003FFB00
003FFA00
003FF800
003FF700
003FF600
004FF500
005FF500
01BFFC30
5FDCDEFD
ENDCHAR
STARTCHAR OE
ENCODING 338
SWIDTH 1132 0
DWIDTH 32 0
BBX 32 28 0 -5
BITMAP
000000000000000000000000005D5000
0000000000000000000000038DFF5000
00000059CEFEB7109FFFFFFEB88E5000
00004DF931137EE60AFFF94000076000
0008FE40000001AFA3FFE00000029000
007FF5000000000AFAFFF00000007000
03FFB00000000001DFFFF00000000000
0BFF6000000000006FFFF10000000000
3FFF2000000000000EFFF20000000000
7FFF00000000000009FFF30000210000
AFFF00000000000005FFF40000710000
CFFF10000000000002FFF50000C00000
CFFF30000000000001FFF7026CD00000
BFFF70000000000000EFFFEBADD00000
9FFFC0000000000000EFFB0001D00000
6FFFF3000000000001FFF90000A00000
1FFFFB000000000004FFFA0000410000
09FFFF40000000000AFFFB0000000000
02EFFFE2000000003FFFFC0000000006
005FFFFE40000002DCEFFD0000000009
0005EFFFFA41138EC1DFFE0000000048
00003BFFFFFFFFF910CFFF0000000097
00000038CDFEC82000CFFF20000002F7
000000000000000000CFFF3000002CF7
000000000000000000DFFF50246AFFF8
000000000000000005FFFFFFFFFFFFF8
00000000000000029FD9642100011231
00000000000000396100000000000000
ENDCHAR
STARTCHAR oe
ENCODING 339
SWIDTH 798 0
DWIDTH 22 0
BBX 22 13 0 2
BITMAP
0006CEEC6000006CEEA200
01BE414DFC100AF713DD10
09F70002EFD18F90007F60
2FF300005FFAFF30007F60
6FF300000DFFFF0000CF30
8FF4000008FFFE202AF900
8FF8000004FFFFDFEC6075
5FFD000002FFFF2000001C
1EFF400003FFFF7000000D
06FFD10006E6FFE200004C
008FFC314D50CFFE5115E6
0003ADFEA3001BFFFFFFA0
000000000000005BEEC600
ENDCHAR
STARTCHAR circumflex
ENCODING 710
SWIDTH 483 0
DWIDTH 14 0
BBX 12 7 1 18
BITMAP
00000B300000
00006FD10000
0002E9FB1000
000B606FC100
00880005ED30
068000002AE1
460000000000
ENDCHAR
STARTCHAR caron
ENCODING 711
SWIDTH 428 0
DWIDTH 12 0
BBX 10 8 1 19
BITMAP
0000000013
42000002A1
3E50001B20
05F601C400
008FAD8000
000DFD1000
0006F60000
0000C10000
ENDCHAR
STARTCHAR ring
ENCODING 730
SWIDTH 330 0
DWIDTH 9 0
BBX 7 7 1 23
BITMAP
02BED600
1D613C50
7B0004A0
9A0004C0
7F613C90
2EFFFF30
04CED400
ENDCHAR
STARTCHAR tilde
ENCODING 732
SWIDTH 433 0
DWIDTH 12 0
BBX 10 5 1 20
BITMAP
04ED400000
182DF70000
6203EF9238
50004FFFF7
000004DEA1
ENDCHAR
STARTCHAR mu.dup1
ENCODING 956
SWIDTH 634 0
DWIDTH 18 0
BBX 17 26 1 -10
BITMAP
012000000000000000
BFB000000000000000
DFA000000024000000
DF9000004DFB000000
CF9000002FFD000000
CFA000000DFE000000
CFB000000AFF000000
BFD0000007FF200000
BFF1000006FF304800
AFF5000006FF500A40
AFFB000008FF800490
9FEE40000BDFC002B0
9FF4E512B67FF71890
8FF03CFD600CFFFF50
8FF100000001AEE700
7FF300000000000000
7FF400000000000000
7FF600000000000000
6FF700000000000000
6FF900000000000000
5FFB00000000000000
4FFD00000000000000
4FFF00000000000000
3FFF20000000000000
2FFE20000000000000
030000000000000000
ENDCHAR
STARTCHAR endash
ENCODING 8211
SWIDTH 436 0
DWIDTH 12 0
BBX 10 2 1 5
BITMAP
2431001232
4ADEFFFED7
ENDCHAR
STARTCHAR emdash
ENCODING 8212
SWIDTH 651 0
DWIDTH 18 0
BBX 16 2 1 6
BITMAP
01345789ABCDEFF9
5CCBA98654432100
ENDCHAR
STARTCHAR quoteleft
ENCODING 8216
SWIDTH 287 0
DWIDTH 8 0
BBX 6 9 1 14
BITMAP
0005A4
008C10
06F700
0EF900
5FFF30
8FFFC0
8FFFF1
5FFFE0
08ED50
ENDCHAR
STARTCHAR quoteright
ENCODING 8217
SWIDTH 291 0
DWIDTH 8 0
BBX 6 10 1 13
BITMAP
1BEC50
7FFFF3
8FFFF9
3FFFFB
05FFFB
003EF9
0005F5
0005D0
002D40
01B400
ENDCHAR
STARTCHAR quotesinglbase
ENCODING 8218
SWIDTH 272 0
DWIDTH 8 0
BBX 6 9 1 -4
BITMAP
0AED50
6FFFE1
6FFFF3
1CFFF2
007FD0
000D80
001E20
008700
029000
ENDCHAR
STARTCHAR quotedblleft
ENCODING 8220
SWIDTH 445 0
DWIDTH 12 0
BBX 11 10 1 13
BITMAP
000069000000
000A90008400
00AC00089000
07F7003F4000
1EF7009F6000
6FFC00CFE300
9FFF70DFFD00
9FFFD0BFFF10
5FFFD02CE700
09ED40000000
ENDCHAR
STARTCHAR quotedblright
ENCODING 8221
SWIDTH 444 0
DWIDTH 12 0
BBX 10 10 1 14
BITMAP
1BEB100000
8FFFA07ED4
6FFFE2FFFD
1CFFE3FFFF
01BFC0BFFE
003F701DFA
005E1009F2
00C5001D60
057001B700
00003A3000
ENDCHAR
STARTCHAR quotedblbase
ENCODING 8222
SWIDTH 482 0
DWIDTH 14 0
BBX 12 11 1 -8
BITMAP
08EE50000000
5FFFF208ED40
7FFFF73FFFE0
4FFFF95FFFF1
08FFF81EFFF0
006FF605FFC0
0009F200AF70
0009B000AE10
001D3001E500
0066000A9000
000000590000
ENDCHAR
STARTCHAR bullet
ENCODING 8226
SWIDTH 351 0
DWIDTH 10 0
BBX 8 7 1 8
BITMAP
02AEEA10
1EFFFFC0
7FFFFFF4
9FFFFFF6
8FFFFFF4
2EFFFFC0
03CED910
ENDCHAR
STARTCHAR guilsinglleft
ENCODING 8249
SWIDTH 465 0
DWIDTH 13 0
BBX 11 19 1 -3
BITMAP
000000001000
000000018000
000000094000
0000004D0000
000001D60000
00000CD00000
0000AF500000
001BFB000000
04EFF3000000
6FFFF4000000
19FFFD100000
004DFFA00000
0001BFF50000
000009FE2000
0000009FB000
00000008F600
000000008E10
000000000780
000000000010
ENDCHAR
STARTCHAR guilsinglright
ENCODING 8250
SWIDTH 449 0
DWIDTH 13 0
BBX 11 18 1 -3
BITMAP
083000000000
05C000000000
00D900000000
006F80000000
000CF8000000
0003FFB10000
00008FFE7000
00001FFFFD10
00007FFFB200
0002EFF80000
000AFF500000
004FF5000000
00CF70000000
05FA00000000
0BD100000000
2F5000000000
6A0000000000
620000000000
ENDCHAR
STARTCHAR fraction
ENCODING 8260
SWIDTH 406 0
DWIDTH 11 0
BBX 19 27 -4 -1
BITMAP
00000000000000000480
00000000000000001D20
0000000000000000A800
0000000000000006D100
000000000000003E4000
00000000000001C80000
00000000000009C00000
0000000000005E200000
000000000002E6000000
00000000000CA0000000
00000000008D10000000
0000000004F400000000
000000001D8000000000
00000000BC0000000000
00000006E20000000000
0000003F500000000000
000000C9000000000000
000008D1000000000000
00004E30000000000000
0001D600000000000000
000AA000000000000000
005D1000000000000000
02E40000000000000000
0B800000000000000000
6C000000000000000000
D2000000000000000000
20000000000000000000
ENDCHAR
STARTCHAR foursuperior
ENCODING 8308
SWIDTH 473 0
DWIDTH 13 0
BBX 13 17 0 9
BITMAP
00000071000000
000001E3000000
000006F4000000
00000DF6000000
00006FF7000000
0001AAF9000000
000748FB000000
001B06FC006000
008404FE01B000
02C003FF4BE000
0A6001FFFFF000
3FAABEFFFFD100
154321DFB00000
000000DFF20000
000001EFFD4100
00009EFFEEEF80
00007530000000
ENDCHAR
STARTCHAR Euro
ENCODING 8364
SWIDTH 799 0
DWIDTH 22 0
BBX 25 24 -1 -1
BITMAP
00000000000000000000000020
00000000000000000000000660
0000000000049CEFEB71002D10
0000000003CFF93113BF97D800
000000006FFD30000008FFF200
00000007FFE200000000CFB000
0000004FFF50000000005F7000
000000DFFC00000000001F3000
000006FFF600000000000D1000
00000CFFF10016A40000080000
00002FFFD15AB6100000000000
00005FFFFC7200000000000000
0015BFFFA005AA200000000000
04EBDFFFBAEA40000000000000
0000AFFFE72000000000000000
027BFFFFA00000000000000000
1FFB9FFFC00000000004500000
02102FFFF10000000006500000
00000BFFF50000000009300000
000004FFFD000000001D000000
000000AFFFA0000000B7000000
0000000BFFFC52015CC0000000
000000009FFFFFFFFC10000000
00000000038CEFEB5000000000
ENDCHAR
STARTCHAR minus
ENCODING 8722
SWIDTH 436 0
DWIDTH 12 0
BBX 10 2 1 5
BITMAP
2431001232
4ADEFFFED7
ENDCHAR
STARTCHAR f_f
ENCODING 64256
SWIDTH 467 0
DWIDTH 13 0
BBX 17 41 0 -9
BITMAP
0000003BED70000000
000005FFFFF4000000
00002D35FFF8000000
00009602FFF6000000
0001E100BEA1000000
0005C000007CFE9100
0009A0000BB21DFB00
000C70007D000BFF30
000E6001F6004FFF60
002F5006F102EFFF60
003F500BD007FFFF40
005F400EB006FFFD00
005F401FA001AEC300
006F502FA000000000
007F503FA000000000
007F603FB134200000
007FB9CFFECB700000
08EFC64FE000000000
037F900FF100000000
006FA00EF200000000
006FC00CF500000000
005FD00AF700000000
004FF008FA00000000
004FF206FD00000000
003FF403FF20000000
002FF601FF60000000
000FF800DFA0000000
000EFA00AFE0000000
000DFD007FF5000000
000CFF004FFC000000
000AFF202FFF800000
0009FF500EFFFD6000
0008FF702FE9410000
0006FFA0B910000000
0005FFC24000000000
0004FFF10000000000
0003FFF50000000000
0003FFFA0000000000
0005FFFF2000000000
015DFFFFD300000000
2EEDCDEFFFC2000000
ENDCHAR
STARTCHAR .notdef
ENCODING -1
SWIDTH 270 0
DWIDTH 8 0
BBX 6 17 1 0
BITMAP
EFFFF8
200002
200002
200002
200002
200002
200002
200002
200002
200002
200002
200002
200002
200002
200002
200002
EFFFF8
ENDCHAR
STARTCHAR .null
ENCODING -1
SWIDTH 0 0
DWIDTH 0 0
BBX 1 1 0 0
BITMAP
00
ENDCHAR
STARTCHAR nonmarkingreturn
ENCODING -1
SWIDTH 270 0
DWIDTH 8 0
BBX 1 1 0 0
BITMAP
00
ENDCHAR
STARTCHAR dieresis.case
ENCODING -1
SWIDTH 393 0
DWIDTH 11 0
BBX 9 4 1 21
BITMAP
2CE8000000
8FFF12DE40
8FFF06FF80
2CE603ED30
ENDCHAR
STARTCHAR o.cmp
ENCODING -1
SWIDTH 400 0
DWIDTH 11 0
BBX 19 22 0 5
BITMAP
0000000000000008EC10
000000000000000EFF90
000000000000000AFFB0
00000000000000008FA0
00000000000000000D70
00000000000000000D20
00000000000000002A00
00000000000000009200
00000000000000047000
00000000000000490000
00000000000018900000
000000000149B5000000
0019E5EEED9400000000
03EF905FE40000000000
0DFD000CFE2000000000
5FF70007FF9000000000
8FF30005FFD000000000
9FF20006FFD000000000
7FF20008FF9000000000
2FF6000DFF3000000000
06FE318FF60000000000
004BEFD9300000000000
ENDCHAR
STARTCHAR n_n
ENCODING -1
SWIDTH 1024 0
DWIDTH 29 0
BBX 29 19 0 -1
BITMAP
0001B0000000000000000000000000
001BF2000000000000000000000000
06DFF50019EEC40000000000000000
AACFF701DFFFFF30137D1000000000
002FF90B513EFFB2FFFF1000000000
000EFC470005FFE00CFF12AEE91000
000AFE910000FFF109FF3EFFFFC000
0007FFB00000CFF109FEC713EFF500
0004FF900000BFF009FFB0008FF800
0001FF800000BFE00AFF50005FFA00
0000DF700000BFC00AFF10005FFA00
0000BF700000CFA00BFF00006FF900
00009F700000DF800BFF00009FF600
00007F900001FF700DFF6000CFF300
00005FC00018FF619FFDC906FFF100
00008FF30DFFFF93741009FFFFF600
00AEFFFE5039FFF400000000248B40
00221024300017EE20000000000000
000000000000001940000000000000
ENDCHAR
STARTCHAR a_a
ENCODING -1
SWIDTH 911 0
DWIDTH 26 0
BBX 27 20 0 -3
BITMAP
000000000000006CEEC500000000
00000000000009F512BF80000000
0000000000005FE0000DF5000000
003BEE9100009FF80006FC000000
03E414EC00008FFD0004FF100000
0CC0005F50002DE70002FF400000
2FF4001F900000000001FF600000
2FFC000DC00000000001FF700000
0AE7000DE00039DFEB73FF800000
0000001EF006FF72026DFF800000
0017BEFFF02FF8000004FF900000
02DFD51DF17FF3DD2005FFA00000
0DFE100CF29FF2AF6006FFA00000
5FF8000DF58FF6086009FFA00000
7FF8002FF83FFE6844AEFFB00000
6FFD21B8FE17FFFFFFA5FFC00000
1EFFFFB09FC35CFEB502FFD00070
03BEDA1005BEFC500000BFF10260
000000000000000000003FF81920
0000000000000000000004CED500
ENDCHAR
STARTCHAR t_h
ENCODING -1
SWIDTH 854 0
DWIDTH 24 0
BBX 25 36 -1 -6
BITMAP
00000000000008800000000000
000000000002BF900000000000
00000000149EFF900000000000
0000000DFFFFFF800000000000
00000000001AFF700000000000
000000000002FF600000000000
000000000000FF600000000000
000000000000FF500000000000
000000007501FF300000000000
00000005E102FF200000000000
0000007FB003FF100000000000
00026CFFC104FF110000000000
5BEFFFFFFEEFFFFE0000000000
13202FFF3005FE100000000000
00001FFC0006FD000000000000
00002FFA0007FD000000000000
00003FF90008FC018DFEB40000
00005FF80009FB2C5117FF9000
00006FF7000AFBC200009FF500
00007FF6000BFF7000003FFC00
00006FF6000CFF1000000FFF10
00005FF7000DFD008EB00EFF30
00004FF8000EFA00EFF40DFF40
00002FFB000FF900BFF50DFF30
00000CFE001FF8001EF20EFF20
000006FF402FF7000CC00EFF00
000000AFD23FF6003F401FFD00
00000009FEAFF727D5002FFA00
0000000039DFFFD820005FF700
00000000009FFA0000007FF500
0000000003FFFF300000AFF200
000000018FFFFFE50000EFF000
0000000DA631138D9006FFF000
0000000000000000028FFFF300
0000000000000000AFFFFFFD10
00000000000000000000037CB0
ENDCHAR
STARTCHAR s_s
ENCODING -1
SWIDTH 654 0
DWIDTH 18 0
BBX 19 25 -1 -4
BITMAP
00000000000010000000
00000000000530000250
0000019DEBB800000930
00000BF616F15BEEEF10
00003FD000A7FC21AF00
00005FD0013EF4001E00
00003FF3001FF3000B00
00000CFC101FF5000400
000004FFA00DFC000000
0000009FFA07FF500000
0000000BFFA1EFE10000
00000001DFF97FFB0000
000000002EFF4DFF6000
0021000006FFC5FFE200
0093000000CFF1CFFA00
00C4002CE57FF36FFF20
01F500BFF95FF21EFF80
07F901FFC27FD00BFFC0
1C9E32F601DF6009FFD0
5203C7D13BF90009FFC0
000018EFEB50000AFFA0
000000850000000EFF40
0000002C2000007FFB00
00000004D72028FFA100
0000000018DEFDA40000
ENDCHAR
STARTCHAR t_t
ENCODING -1
SWIDTH 569 0
DWIDTH 16 0
BBX 16 25 0 -2
BITMAP
00000000AFA00000
00000000FFA00000
00000182FF900000
00000783FF700010
00002E65FF727A30
0003DF47FFFC5000
028FFFDFFF800000
AFFFFFCEFF100000
005FFE0BFD000000
004FFA0BFB000000
005FF80AFA000000
006FF70AFA000000
007FF609FA000000
007FF508FB000000
008FF506FD006EC2
008FF503FF10BFFB
007FF500DF504CFE
005FF6007FC0006C
002FF8000AFB2196
000DFA00006DFD70
0008FE000008EB00
0001EF40002FFF20
00005FC0005FFE00
000005EB21CFF700
00000028CEEC5000
ENDCHAR
STARTCHAR e_e
ENCODING -1
SWIDTH 782 0
DWIDTH 22 0
BBX 22 16 0 0
BITMAP
0005BEE910003AEFD70000
00AFB22DB005FD316F8000
08FD1007F13FF2000AF200
2FF70006F3CFA00005F500
8FF40007F5FF600004F700
BFF2000AE7FF400005F600
DFF1001E89FF300007F400
DFF101BD1AFF30000AE100
CFF46DC209FF40000EA000
8FFFB50008FF60006F3290
2FFB000005FF9001D800A3
09FF500001FFE10AB00077
00BFF50000AFF8AB1000B6
0008FFB5102FFFC31018F2
000027BDFEDADFFFFFFF80
00000000000016BEFEC600
ENDCHAR
STARTCHAR o_o
ENCODING -1
SWIDTH 751 0
DWIDTH 21 0
BBX 29 24 0 2
BITMAP
0000000000000000000000000AEB10
0000000000000000000000003FFF60
0000000000000000000000000CFF90
00000000000000000000000001AF70
000000000000000000000000001F40
000000000000000000000000000E00
000000000000000000000000005900
00000000000000000000000000B100
000000000000000000000000077000
0000000000000000000000007A0000
00000000000000000000002A900000
00018CEEC810000010126AC5000000
004EF9214DD27D83FFFD9400000000
03EF800004FFF7007FC10000000000
0CFE100000DF70000DFB0000000000
3FF9000002FF800008FF3000000000
6FF6000008FFA00006FF7000000000
8FF400000AFFA00005FF7000000000
8FF4000008FF800008FF4000000000
6FF5000004FF40001DFC0000000000
2FF8000006FFB303CFD20000000000
09FE10001DF69DEEC7100000000000
00AFB214CF60000000000000000000
0005BEFDA300000000000000000000
ENDCHAR
STARTCHAR l_l
ENCODING -1
SWIDTH 573 0
DWIDTH 16 0
BBX 19 28 -2 -4
BITMAP
000001C0000018800000
00001CF00259EF900000
0002CFF06EFFFF900000
005EFFF0003FFF900000
0771FFF0000DFF900000
0000EFF0000BFF900000
0000DFF0000AFF900000
0000DFF00009FF900000
0000DFF10008FF900000
0000CFF10007FF900000
0000CFF10007FF900000
0000CFF10006FF900000
0000CFF20005FFA00000
0000CFF20005FFB00000
0000CFF30005FFC00000
0000CFF30004FFD00000
0000CFF30004FFE00000
0000DFF40004FFF10000
0000DFF40004FFF30000
0000DFF50004FFF50000
0000EFF50004FFF80000
0000EFF60008FFFE4000
0000FFF705CEDCDDFE10
0003FFFA011000000000
4EEFFFFD000000000000
01358CFF900000000000
00000028DB1000000000
00000000031000000000
ENDCHAR
STARTCHAR z_z
ENCODING -1
SWIDTH 875 0
DWIDTH 25 0
BBX 26 19 -1 -2
BITMAP
00000000B94100259C00000000
00000000CFEFFFFFF900000000
000000008000016FF400000000
002EB731025A607FD000000000
003A102CFFFD00EF6000000000
0024000DFFF306FE1000000000
0013005FFF800DF90000000000
000000DFFD007FF40000000000
000006FFF301EFD00000000000
00001EFF9008FF800007000000
00008FFD101EFF20001A000000
0001EFF5009FFC00006A007EC2
0009FFA001EFF70014EA00FFF9
002FFE2005FFFFFFFFFB01FFFB
00AFF70000000000000000AFFA
04FFC000000000000000004FF6
0DFFABDFFECA73000000003FD0
6C852101358BEFEA742103CC20
0000000000000258BDFFDA5000
ENDCHAR
STARTCHAR j_j
ENCODING -1
SWIDTH 577 0
DWIDTH 16 0
BBX 20 38 -4 -18
BITMAP
0000000000008ED30000
000000000002FFFA0000
000000000002FFF90000
000000006EC29EC20000
00000000CFF600000000
000000006EC2148C8000
000000000008EFFFE100
0000121012583CFFF500
000017CFFFFF81EFFA00
00000005EFFFC07FFE00
000000004FFFE01FFF30
000000000AFFF20AFF60
0000000003FFF405FF90
0000000000EFF501FFC0
0000000000AFF700CFE0
00000000007FF8009FF1
00000000004FF9006FF3
00000000001FFA003FF4
00000000000FFA001FF6
00000000000DFA000EF6
00000000000CFA000CF7
00000000000BF9000AF8
00000000000BF80009F8
00000000000BF70008F9
003CFC30000CF50007F8
03FFFFC0000DF30007F8
0BFFFFC0000EE00007F7
0FFFFE40002FB00008F6
2FF94000005F600008F4
1F90000000AE10000AF2
0D70000003F700000BE0
08B000001CC000000DA0
01CA3115DC7700001F60
0007CFEB68FF80004F20
000000000BFFE1009900
0000000009FFF915E100
0000000003FFFFFE3000
00000000004CED910000
ENDCHAR
STARTCHAR f_b
ENCODING -1
SWIDTH 731 0
DWIDTH 21 0
BBX 23 37 -2 -5
BITMAP
0000000018EEC50000000000
00000001C8117F6000000000
0000000990000CE000000000
0000002F20000DF200000000
0000008C00019FF300000000
000000D8007EFFF200000000
000001F604FFFFC000000000
000005F405FFFF5000000000
000008F300AED66500000000
00000AF300004BF700000000
00000CF301AEFFF800000000
00001FF70169EFF800000000
00019FFEA9A96FF800000000
2ACFFFFC30001FF800000000
13107FF700000EF800000000
00004FF700000DF800000000
00003FF700000CF700000000
00003FF800000CF700000000
00003FF800000CF700000000
00003FF900000BF700000000
00002FF900000BF700000000
00002FFA00000BF700000000
00002FFA00000BF99DEC7000
00002FFB00000BFE419FFA00
00002FFB00000BF9001FFF30
00002FFC00000BF5000DFF60
00002FFC00000BF4000DFF70
00002FFD00000BF4000EFF60
00002FFD00000CF6003FFF20
00002FFE00003FFC22CFF800
00002FFE0003EFFFFFFD6000
00002FFF004B720122100000
00002FFF2000000000000000
00004FFF9000000000000000
0000AFFFFED6000000000000
003BC7310000000000000000
006300000000000000000000
ENDCHAR
STARTCHAR f_k
ENCODING -1
SWIDTH 708 0
DWIDTH 20 0
BBX 20 32 0 -4
BITMAP
00000000910000000000
0000001AF10000000000
000017EFF00000000000
008CFFFFFDFD70000000
002103EFF11BFB000000
000009BFF00BFF300000
00003D4FF16FFF600000
0000A83FF1EFFF500000
0002F42FF2EFFF100000
0006F22FF25ED5000000
000AF01FF30000000000
000DE01FF30000000000
001FD01FF40000000000
08DFC00FF406B6200000
044FC00FF5001DFEB600
004FB00FF6000D810000
005FB00FF60085000000
005FB00EF70770000000
005FB00EF86F60000000
006FB00EFCDFA0000000
006FB00EFB6FE1000620
006FB00DFB2FF60000A1
007FB00DFC0CFD100075
007FB00DFE05FF900068
007FB00DFF00BFF912C7
007FC00DFF101CFFFFF2
009FD00DFF30018DFD50
01DFE00DFF5000000000
2EFFF71FFF9000000000
010135AFFFF744000000
00049EFFFFFFFF400000
00035421001233000000
ENDCHAR
STARTCHAR f_h
ENCODING -1
SWIDTH 873 0
DWIDTH 24 0
BBX 27 37 -2 -5
BITMAP
0000000018EEC500000000000000
00000001C8117F60000000000000
0000000890000CE0000000000000
0000001F20000DF2000000000000
0000007C0002AFF3000000000000
000000C8008FFFF1000000000000
000001F605FFFFC0200000000000
000004F404FFFF45D00000000000
000007F3008CB47FB00000000000
000009F300016DFF900000000000
00000CF300AEEFFF700000000000
00000EF7003106FF500000000000
00005FFEAACA00FF400000000000
046AFFFE720000EF300000000000
2876BFF8000000FF200000000000
00004FF7000001FF100000000000
00003FF7000001FF000000000000
00003FF8000002FE000000000000
00003FF8000003FE000000000000
00003FF9000004FD000000000000
00003FF9000005FD019EEB300000
00002FF9000006FD1922CFE30000
00002FFA000007FC91004FFB0000
00002FFA000008FE90000FFF0000
00002FFB000009FF40000DFF2000
00002FFC00000AFF10000DFF3000
00002FFC00000CFD00000DFF3000
00002FFD00000DFB00000DFF3000
00002FFD00000FF900000DFF2000
00002FFE00002FF800000EFF3000
00002FFE00006FF800001FFF6000
00002FFF0002DFFB0000AFFFFD50
00002FFF24FFFFFFA10774102310
00004FFF80210136840000000000
00008FFFFEC60000000000000000
0039C73100000000000000000000
0063000000000000000000000000
ENDCHAR
ENDFONT
